<svg width="38" height="38" viewBox="0 0 38 38" fill="none" xmlns="http://www.w3.org/2000/svg">
<path d="M34.6667 18C34.6667 8.79498 27.205 1.33331 18 1.33331C8.79504 1.33331 1.33337 8.79498 1.33337 18C1.33337 27.205 8.79504 34.6666 18 34.6666" stroke="white" stroke-width="1.5" stroke-linecap="round" stroke-linejoin="round"/>
<path d="M19.6668 1.41663C19.6668 1.41663 24.6668 7.99996 24.6668 18M16.3334 34.5833C16.3334 34.5833 11.3334 28 11.3334 18C11.3334 7.99996 16.3334 1.41663 16.3334 1.41663M2.38342 23.8333H18.0001M2.38342 12.1666H33.6168M29.6668 27.1666V29.6666H32.1668" stroke="white" stroke-width="1.5" stroke-linecap="round" stroke-linejoin="round"/>
<path d="M29.6667 36.3333C31.4348 36.3333 33.1305 35.631 34.3807 34.3807C35.631 33.1305 36.3333 31.4348 36.3333 29.6667C36.3333 27.8986 35.631 26.2029 34.3807 24.9526C33.1305 23.7024 31.4348 23 29.6667 23C27.8986 23 26.2029 23.7024 24.9526 24.9526C23.7024 26.2029 23 27.8986 23 29.6667C23 31.4348 23.7024 33.1305 24.9526 34.3807C26.2029 35.631 27.8986 36.3333 29.6667 36.3333Z" stroke="white" stroke-width="1.5" stroke-linecap="round" stroke-linejoin="round"/>
</svg>
