<svg width="37" height="398" viewBox="0 0 37 398" fill="none" xmlns="http://www.w3.org/2000/svg">
<path d="M36 376.438L36 377.438L37 377.438L37 376.438L36 376.438ZM12.001 376.438L12.001 375.438L11.855 377.428L12.001 376.438ZM13.4902 376.658L13.8299 375.718L13.7355 375.684L13.6362 375.669L13.4902 376.658ZM36 384.788L37 384.788L37 384.086L36.3397 383.848L36 384.788ZM36 386.448L36.3424 387.388L37 387.148L37 386.448L36 386.448ZM13.4902 394.651L13.6203 395.643L13.7293 395.629L13.8326 395.591L13.4902 394.651ZM12.001 394.847L11.8709 393.855L12.001 395.847L12.001 394.847ZM36 394.847L37 394.847L37 393.847L36 393.847L36 394.847ZM36 397.996L36 398.996L37 398.996L37 397.996L36 397.996ZM0.990234 397.996L-0.0097658 397.996L-0.00976576 398.996L0.990234 398.996L0.990234 397.996ZM0.990234 396.36L0.643309 395.422L-0.0097659 395.664L-0.00976587 396.36L0.990234 396.36ZM29.7012 385.74L29.6259 384.743L29.4859 384.754L29.3542 384.802L29.7012 385.74ZM30.9951 385.643L31.0704 386.64L31.0704 384.645L30.9951 385.643ZM29.7012 385.545L29.3549 386.483L29.4863 386.532L29.6259 386.542L29.7012 385.545ZM0.990233 374.949L-0.00976681 374.949L-0.00976678 375.646L0.64401 375.887L0.990233 374.949ZM0.990233 373.289L0.990233 372.289L-0.00976692 372.289L-0.00976688 373.289L0.990233 373.289ZM36 373.289L37 373.289L37 372.289L36 372.289L36 373.289ZM36 375.438L12.001 375.438L12.001 377.438L36 377.438L36 375.438ZM11.855 377.428L13.3443 377.647L13.6362 375.669L12.1469 375.449L11.855 377.428ZM13.1505 377.599L35.6603 385.729L36.3397 383.848L13.8299 375.718L13.1505 377.599ZM35 384.788L35 386.448L37 386.448L37 384.788L35 384.788ZM35.6576 385.509L13.1478 393.712L13.8326 395.591L36.3424 387.388L35.6576 385.509ZM13.3602 393.66L11.8709 393.855L12.131 395.838L13.6203 395.643L13.3602 393.66ZM12.001 395.847L36 395.847L36 393.847L12.001 393.847L12.001 395.847ZM35 394.847L35 397.996L37 397.996L37 394.847L35 394.847ZM36 396.996L0.990234 396.996L0.990234 398.996L36 398.996L36 396.996ZM1.99023 397.996L1.99023 396.36L-0.00976587 396.36L-0.0097658 397.996L1.99023 397.996ZM1.33716 397.298L30.0481 386.678L29.3542 384.802L0.643309 395.422L1.33716 397.298ZM29.7764 386.737L31.0704 386.64L30.9199 384.645L29.6259 384.743L29.7764 386.737ZM31.0704 384.645L29.7764 384.548L29.6259 386.542L30.9199 386.64L31.0704 384.645ZM30.0474 384.607L1.33646 374.011L0.64401 375.887L29.3549 386.483L30.0474 384.607ZM1.99023 374.949L1.99023 373.289L-0.00976688 373.289L-0.00976681 374.949L1.99023 374.949ZM0.990233 374.289L36 374.289L36 372.289L0.990233 372.289L0.990233 374.289ZM35 373.289L35 376.438L37 376.438L37 373.289L35 373.289ZM31.9961 345.657L31.5961 346.574L31.6032 346.577L31.6103 346.58L31.9961 345.657ZM35.9268 349.563L36.8493 349.178L36.8464 349.171L36.8433 349.164L35.9268 349.563ZM35.9268 357.278L36.8433 357.678L36.8464 357.671L36.8493 357.664L35.9268 357.278ZM31.9961 361.209L32.3819 362.132L32.389 362.129L32.396 362.126L31.9961 361.209ZM15.0039 361.209L14.604 362.126L14.611 362.129L14.6181 362.132L15.0039 361.209ZM11.0977 357.278L12.0202 356.893L12.0173 356.885L12.0142 356.878L11.0977 357.278ZM11.0977 349.563L12.0142 349.963L12.0173 349.956L12.0202 349.949L11.0977 349.563ZM15.0039 345.657L15.3897 346.58L15.3968 346.577L15.4038 346.574L15.0039 345.657ZM23.7441 345.071L24.7441 345.071L24.7441 344.071L23.7441 344.071L23.7441 345.071ZM23.7441 358.768L22.7441 358.768L22.7441 359.768L23.7441 359.768L23.7441 358.768ZM31.0195 358.426L31.4101 359.346L31.4203 359.342L31.0195 358.426ZM33.3145 356.131L34.2307 356.532L34.235 356.521L33.3145 356.131ZM33.3145 350.735L32.3938 351.126L32.3983 351.136L33.3145 350.735ZM31.0195 348.416L31.4204 347.5L31.4101 347.495L31.0195 348.416ZM27.6504 348.074L26.6634 347.914L26.4747 349.074L27.6504 349.074L27.6504 348.074ZM28.1387 345.071L28.1387 344.071L27.2881 344.071L27.1516 344.911L28.1387 345.071ZM16.0049 348.416L16.3955 349.337L16.4057 349.332L16.0049 348.416ZM13.6855 350.735L14.6018 351.136L14.6061 351.126L13.6855 350.735ZM13.6855 356.131L12.7649 356.521L12.7694 356.532L13.6855 356.131ZM16.0049 358.426L16.4057 357.51L16.3954 357.505L16.0049 358.426ZM21.4004 358.768L21.4004 359.768L22.4004 359.768L22.4004 358.768L21.4004 358.768ZM21.4004 348.074L22.4004 348.074L22.4004 347.074L21.4004 347.074L21.4004 348.074ZM29.1396 346.071C30.0158 346.071 30.8313 346.24 31.5961 346.574L32.396 344.741C31.3705 344.293 30.2817 344.071 29.1396 344.071L29.1396 346.071ZM31.6103 346.58C32.3888 346.905 33.0601 347.354 33.6327 347.927L35.0469 346.513C34.285 345.751 33.3937 345.158 32.3819 344.735L31.6103 346.58ZM33.6327 347.927C34.2086 348.503 34.6678 349.179 35.0102 349.963L36.8433 349.164C36.4045 348.158 35.8058 347.271 35.0469 346.513L33.6327 347.927ZM35.0042 349.949C35.3254 350.717 35.4883 351.538 35.4883 352.42L37.4883 352.42C37.4883 351.284 37.2768 350.2 36.8493 349.178L35.0042 349.949ZM35.4883 352.42L35.4883 354.422L37.4883 354.422L37.4883 352.42L35.4883 352.42ZM35.4883 354.422C35.4883 355.304 35.3254 356.124 35.0042 356.893L36.8493 357.664C37.2768 356.642 37.4883 355.558 37.4883 354.422L35.4883 354.422ZM35.0102 356.878C34.6678 357.663 34.2086 358.339 33.6327 358.915L35.0469 360.329C35.8058 359.57 36.4045 358.684 36.8433 357.678L35.0102 356.878ZM33.6327 358.915C33.0569 359.491 32.3808 359.95 31.5961 360.292L32.396 362.126C33.4017 361.687 34.2881 361.088 35.0469 360.329L33.6327 358.915ZM31.6103 360.286C30.8422 360.608 30.0217 360.771 29.1396 360.771L29.1396 362.771C30.2758 362.771 31.3596 362.559 32.3819 362.132L31.6103 360.286ZM29.1396 360.771L17.8603 360.771L17.8603 362.771L29.1396 362.771L29.1396 360.771ZM17.8603 360.771C16.9783 360.771 16.1578 360.608 15.3897 360.286L14.6181 362.132C15.6404 362.559 16.7242 362.771 17.8603 362.771L17.8603 360.771ZM15.4038 360.292C14.6192 359.95 13.9431 359.491 13.3673 358.915L11.953 360.329C12.7119 361.088 13.5983 361.687 14.604 362.126L15.4038 360.292ZM13.3673 358.915C12.7946 358.342 12.3458 357.671 12.0202 356.893L10.1751 357.664C10.5982 358.676 11.1911 359.567 11.953 360.329L13.3673 358.915ZM12.0142 356.878C11.6805 356.114 11.5117 355.298 11.5117 354.422L9.51172 354.422C9.51172 355.564 9.7336 356.653 10.1811 357.678L12.0142 356.878ZM11.5117 354.422L11.5117 352.42L9.51172 352.42L9.51172 354.422L11.5117 354.422ZM11.5117 352.42C11.5117 351.544 11.6805 350.728 12.0142 349.963L10.1811 349.164C9.7336 350.189 9.51172 351.278 9.51172 352.42L11.5117 352.42ZM12.0202 349.949C12.3458 349.171 12.7946 348.499 13.3673 347.927L11.953 346.513C11.1911 347.275 10.5982 348.166 10.1751 349.178L12.0202 349.949ZM13.3673 347.927C13.9399 347.354 14.6112 346.905 15.3897 346.58L14.6181 344.735C13.6063 345.158 12.715 345.751 11.953 346.513L13.3673 347.927ZM15.4038 346.574C16.1687 346.24 16.9842 346.071 17.8603 346.071L17.8603 344.071C16.7183 344.071 15.6295 344.293 14.604 344.741L15.4038 346.574ZM17.8603 346.071L23.7441 346.071L23.7441 344.071L17.8603 344.071L17.8603 346.071ZM22.7441 345.071L22.7441 358.768L24.7441 358.768L24.7441 345.071L22.7441 345.071ZM23.7441 359.768L29.3105 359.768L29.3105 357.768L23.7441 357.768L23.7441 359.768ZM29.3105 359.768C30.0425 359.768 30.7454 359.628 31.4101 359.346L30.629 357.505C30.2194 357.679 29.783 357.768 29.3105 357.768L29.3105 359.768ZM31.4203 359.342C32.052 359.066 32.6125 358.687 33.0938 358.205L31.6796 356.791C31.3797 357.091 31.0287 357.33 30.6187 357.51L31.4203 359.342ZM33.0938 358.205C33.5752 357.724 33.9542 357.163 34.2306 356.532L32.3983 355.73C32.2189 356.14 31.9795 356.491 31.6796 356.791L33.0938 358.205ZM34.235 356.521C34.517 355.857 34.6562 355.154 34.6562 354.422L32.6562 354.422C32.6562 354.894 32.5676 355.331 32.3939 355.74L34.235 356.521ZM34.6562 354.422L34.6562 352.42L32.6562 352.42L32.6562 354.422L34.6562 354.422ZM34.6562 352.42C34.6562 351.688 34.517 350.989 34.2306 350.335L32.3983 351.136C32.5676 351.523 32.6562 351.947 32.6562 352.42L34.6562 352.42ZM34.235 350.345C33.9599 349.696 33.5803 349.123 33.0938 348.637L31.6796 350.051C31.9744 350.346 32.2133 350.7 32.3939 351.126L34.235 350.345ZM33.0938 348.637C32.6125 348.155 32.052 347.776 31.4203 347.5L30.6187 349.332C31.0287 349.512 31.3797 349.751 31.6796 350.051L33.0938 348.637ZM31.4101 347.495C30.7454 347.213 30.0425 347.074 29.3105 347.074L29.3105 349.074C29.783 349.074 30.2194 349.163 30.629 349.337L31.4101 347.495ZM29.3105 347.074L27.6504 347.074L27.6504 349.074L29.3105 349.074L29.3105 347.074ZM28.6374 348.235L29.1257 345.232L27.1516 344.911L26.6634 347.914L28.6374 348.235ZM28.1387 346.071L29.1396 346.071L29.1396 344.071L28.1387 344.071L28.1387 346.071ZM17.6895 347.074C16.9576 347.074 16.2587 347.213 15.6041 347.5L16.4057 349.332C16.7927 349.163 17.2169 349.074 17.6895 349.074L17.6895 347.074ZM15.6143 347.495C14.9657 347.771 14.3927 348.15 13.9062 348.637L15.3204 350.051C15.6152 349.756 15.9698 349.517 16.3954 349.337L15.6143 347.495ZM13.9062 348.637C13.4197 349.123 13.0401 349.696 12.765 350.345L14.6061 351.126C14.7867 350.7 15.0256 350.346 15.3204 350.051L13.9062 348.637ZM12.7694 350.335C12.483 350.989 12.3437 351.688 12.3437 352.42L14.3437 352.42C14.3437 351.947 14.4324 351.523 14.6017 351.136L12.7694 350.335ZM12.3437 352.42L12.3437 354.422L14.3437 354.422L14.3437 352.42L12.3437 352.42ZM12.3437 354.422C12.3437 355.154 12.483 355.857 12.765 356.521L14.6061 355.74C14.4324 355.331 14.3437 354.894 14.3437 354.422L12.3437 354.422ZM12.7694 356.532C13.0457 357.163 13.4248 357.724 13.9062 358.205L15.3204 356.791C15.0205 356.491 14.7811 356.14 14.6017 355.73L12.7694 356.532ZM13.9062 358.205C14.3927 358.692 14.9657 359.071 15.6143 359.346L16.3954 357.505C15.9698 357.325 15.6152 357.086 15.3204 356.791L13.9062 358.205ZM15.6041 359.342C16.2587 359.628 16.9576 359.768 17.6895 359.768L17.6895 357.768C17.2169 357.768 16.7927 357.679 16.4057 357.51L15.6041 359.342ZM17.6895 359.768L21.4004 359.768L21.4004 357.768L17.6895 357.768L17.6895 359.768ZM22.4004 358.768L22.4004 348.074L20.4004 348.074L20.4004 358.768L22.4004 358.768ZM21.4004 347.074L17.6895 347.074L17.6895 349.074L21.4004 349.074L21.4004 347.074ZM36 307.674L36 308.674L37 308.674L37 307.674L36 307.674ZM16.0049 308.016L16.3955 308.936L16.4057 308.932L16.0049 308.016ZM13.6855 310.335L14.6018 310.736L14.6061 310.726L13.6855 310.335ZM13.6855 315.218L12.7649 315.608L12.7694 315.619L13.6855 315.218ZM14.6133 316.609L13.8919 317.302L13.899 317.309L13.9062 317.316L14.6133 316.609ZM16.0049 317.537L16.4057 316.621L16.3954 316.617L16.0049 317.537ZM36 317.879L37 317.879L37 316.879L36 316.879L36 317.879ZM36 320.857L36 321.857L37 321.857L37 320.857L36 320.857ZM16.0049 321.199L16.3955 322.12L16.4057 322.115L16.0049 321.199ZM14.6133 322.151L15.3204 322.858L15.3276 322.851L15.3347 322.844L14.6133 322.151ZM13.6855 323.543L14.6018 323.944L14.6061 323.934L13.6855 323.543ZM13.6855 328.426L12.7649 328.816L12.7694 328.827L13.6855 328.426ZM16.0049 330.721L16.4057 329.804L16.3954 329.8L16.0049 330.721ZM36 331.062L37 331.062L37 330.062L36 330.062L36 331.062ZM36 334.065L36 335.065L37 335.065L37 334.065L36 334.065ZM11 334.065L10 334.065L10 335.065L11 335.065L11 334.065ZM11 333.064L10.4584 332.224L10 332.519L10 333.064L11 333.064ZM13.5391 331.429L14.0806 332.269L15.2998 331.484L14.1323 330.624L13.5391 331.429ZM11.3418 328.865L12.2276 328.401L12.2249 328.396L11.3418 328.865ZM11.5615 321.395L12.4136 321.918L11.5615 321.395ZM14.3447 318.758L14.8166 319.639L16.4523 318.764L14.8218 317.879L14.3447 318.758ZM11.5859 316.097L12.4479 315.59L12.4424 315.58L12.4367 315.571L11.5859 316.097ZM10.8047 314.29L11.7689 314.025L11.7658 314.014L11.7625 314.003L10.8047 314.29ZM11.0977 309.163L12.0142 309.563L12.0173 309.556L12.0202 309.549L11.0977 309.163ZM15.0039 305.257L15.3897 306.179L15.3968 306.176L15.4038 306.173L15.0039 305.257ZM36 304.671L37 304.671L37 303.671L36 303.671L36 304.671ZM36 306.674L17.6894 306.674L17.6894 308.674L36 308.674L36 306.674ZM17.6894 306.674C16.9576 306.674 16.2587 306.813 15.6041 307.099L16.4057 308.932C16.7927 308.762 17.2169 308.674 17.6894 308.674L17.6894 306.674ZM15.6143 307.095C14.9657 307.37 14.3927 307.75 13.9062 308.236L15.3204 309.65C15.6151 309.356 15.9698 309.117 16.3954 308.936L15.6143 307.095ZM13.9062 308.236C13.4197 308.723 13.0401 309.296 12.765 309.944L14.6061 310.726C14.7867 310.3 15.0256 309.945 15.3204 309.65L13.9062 308.236ZM12.7694 309.934C12.483 310.589 12.3437 311.288 12.3437 312.02L14.3437 312.02C14.3437 311.547 14.4324 311.123 14.6017 310.736L12.7694 309.934ZM12.3437 312.02L12.3437 313.509L14.3437 313.509L14.3437 312.02L12.3437 312.02ZM12.3437 313.509C12.3437 314.241 12.483 314.944 12.765 315.608L14.6061 314.827C14.4324 314.418 14.3437 313.981 14.3437 313.509L12.3437 313.509ZM12.7694 315.619C13.0441 316.247 13.419 316.809 13.8919 317.302L15.3347 315.917C15.0263 315.596 14.7827 315.231 14.6017 314.817L12.7694 315.619ZM13.9062 317.316C14.3927 317.803 14.9657 318.183 15.6143 318.458L16.3954 316.617C15.9698 316.436 15.6151 316.197 15.3204 315.902L13.9062 317.316ZM15.6041 318.453C16.2587 318.74 16.9576 318.879 17.6894 318.879L17.6894 316.879C17.2169 316.879 16.7927 316.79 16.4057 316.621L15.6041 318.453ZM17.6894 318.879L36 318.879L36 316.879L17.6894 316.879L17.6894 318.879ZM35 317.879L35 320.857L37 320.857L37 317.879L35 317.879ZM36 319.857L17.6894 319.857L17.6894 321.857L36 321.857L36 319.857ZM17.6894 319.857C16.9576 319.857 16.2587 319.997 15.6041 320.283L16.4057 322.115C16.7927 321.946 17.2169 321.857 17.6894 321.857L17.6894 319.857ZM15.6143 320.279C14.957 320.557 14.3795 320.951 13.8919 321.459L15.3347 322.844C15.6283 322.538 15.9785 322.297 16.3954 322.12L15.6143 320.279ZM13.9062 321.444C13.4197 321.931 13.0401 322.504 12.765 323.152L14.6061 323.934C14.7867 323.508 15.0256 323.153 15.3204 322.858L13.9062 321.444ZM12.7694 323.142C12.483 323.797 12.3437 324.496 12.3437 325.228L14.3437 325.228C14.3437 324.755 14.4324 324.331 14.6017 323.944L12.7694 323.142ZM12.3437 325.228L12.3437 326.717L14.3437 326.717L14.3437 325.228L12.3437 325.228ZM12.3437 326.717C12.3437 327.449 12.483 328.152 12.765 328.816L14.6061 328.035C14.4324 327.626 14.3437 327.189 14.3437 326.717L12.3437 326.717ZM12.7694 328.827C13.0457 329.458 13.4248 330.019 13.9062 330.5L15.3204 329.086C15.0205 328.786 14.7811 328.435 14.6017 328.025L12.7694 328.827ZM13.9062 330.5C14.3927 330.987 14.9657 331.366 15.6143 331.641L16.3954 329.8C15.9698 329.62 15.6151 329.381 15.3204 329.086L13.9062 330.5ZM15.6041 331.637C16.2587 331.923 16.9576 332.062 17.6895 332.062L17.6894 330.062C17.2169 330.062 16.7927 329.974 16.4057 329.805L15.6041 331.637ZM17.6895 332.062L36 332.062L36 330.062L17.6894 330.062L17.6895 332.062ZM35 331.062L35 334.065L37 334.065L37 331.062L35 331.062ZM36 333.065L11 333.065L11 335.065L36 335.065L36 333.065ZM12 334.065L12 333.064L10 333.064L10 334.065L12 334.065ZM11.5416 333.905L14.0806 332.269L12.9975 330.588L10.4584 332.224L11.5416 333.905ZM14.1323 330.624C13.3272 330.03 12.6947 329.293 12.2276 328.401L10.456 329.329C11.0632 330.488 11.8954 331.46 12.9459 332.234L14.1323 330.624ZM12.2249 328.396C11.751 327.504 11.5117 326.535 11.5117 325.472L9.51172 325.472C9.51172 326.85 9.82581 328.143 10.4587 329.334L12.2249 328.396ZM11.5117 325.472L11.5117 325.228L9.51172 325.228L9.51172 325.472L11.5117 325.472ZM11.5117 325.228C11.5117 323.985 11.8162 322.89 12.4136 321.918L10.7094 320.871C9.90706 322.177 9.51172 323.638 9.51172 325.228L11.5117 325.228ZM12.4136 321.918C13.0227 320.926 13.8205 320.173 14.8166 319.639L13.8728 317.876C12.5577 318.58 11.5001 319.584 10.7094 320.871L12.4136 321.918ZM14.8218 317.879C14.3325 317.613 13.8847 317.285 13.4768 316.891L12.0876 318.33C12.6238 318.847 13.2176 319.284 13.8676 319.637L14.8218 317.879ZM13.4768 316.891C13.0685 316.497 12.7265 316.063 12.4479 315.59L10.724 316.604C11.0964 317.237 11.5519 317.813 12.0876 318.33L13.4768 316.891ZM12.4367 315.571C12.1468 315.102 11.9237 314.588 11.7689 314.025L9.84048 314.555C10.0438 315.294 10.3415 315.985 10.7351 316.622L12.4367 315.571ZM11.7625 314.003C11.596 313.448 11.5117 312.869 11.5117 312.264L9.51171 312.264C9.51171 313.058 9.62276 313.83 9.84686 314.577L11.7625 314.003ZM11.5117 312.264L11.5117 312.02L9.51171 312.02L9.51171 312.264L11.5117 312.264ZM11.5117 312.02C11.5117 311.143 11.6805 310.328 12.0142 309.563L10.1811 308.763C9.7336 309.789 9.51171 310.877 9.51171 312.02L11.5117 312.02ZM12.0202 309.549C12.3458 308.77 12.7946 308.099 13.3673 307.526L11.953 306.112C11.1911 306.874 10.5982 307.765 10.1751 308.777L12.0202 309.549ZM13.3673 307.526C13.9399 306.954 14.6112 306.505 15.3897 306.179L14.6181 304.334C13.6063 304.757 12.715 305.35 11.953 306.112L13.3673 307.526ZM15.4038 306.173C16.1687 305.84 16.9842 305.671 17.8603 305.671L17.8603 303.671C16.7183 303.671 15.6295 303.893 14.604 304.34L15.4038 306.173ZM17.8603 305.671L36 305.671L36 303.671L17.8603 303.671L17.8603 305.671ZM35 304.671L35 307.674L37 307.674L37 304.671L35 304.671ZM31.9961 277.552L31.5961 278.468L31.6032 278.471L31.6103 278.474L31.9961 277.552ZM35.9268 281.458L36.8493 281.072L36.8464 281.065L36.8433 281.058L35.9268 281.458ZM35.9268 289.173L36.8433 289.573L36.8464 289.566L36.8493 289.559L35.9268 289.173ZM31.9961 293.104L32.3819 294.026L32.389 294.023L32.396 294.02L31.9961 293.104ZM0.99023 293.665L-0.00977036 293.665L-0.00977032 294.665L0.99023 294.665L0.99023 293.665ZM0.99023 290.662L0.990229 289.662L-0.00977054 289.662L-0.00977049 290.662L0.99023 290.662ZM13.0996 290.662L13.0996 291.662L15.8448 291.662L13.7428 289.896L13.0996 290.662ZM11.1953 288.196L12.0987 287.768L11.1953 288.196ZM11.0977 281.458L12.0142 281.858L12.0173 281.851L12.0202 281.844L11.0977 281.458ZM15.0039 277.552L15.3897 278.474L15.3968 278.471L15.4038 278.468L15.0039 277.552ZM16.0049 280.311L16.3955 281.231L16.4057 281.227L16.0049 280.311ZM13.6855 282.63L14.6018 283.031L14.6061 283.02L13.6855 282.63ZM13.6855 288.025L12.7649 288.416L12.7694 288.426L13.6855 288.025ZM16.0049 290.32L16.4057 289.404L16.3954 289.4L16.0049 290.32ZM31.0195 290.32L31.4101 291.241L31.4203 291.236L31.0195 290.32ZM33.3144 288.025L34.2307 288.426L34.235 288.416L33.3144 288.025ZM33.3144 282.63L32.3938 283.02L32.3983 283.031L33.3144 282.63ZM31.0195 280.311L31.4204 279.394L31.4101 279.39L31.0195 280.311ZM29.1396 277.966C30.0158 277.966 30.8313 278.135 31.5961 278.468L32.396 276.635C31.3705 276.188 30.2817 275.966 29.1396 275.966L29.1396 277.966ZM31.6103 278.474C32.3888 278.8 33.0601 279.249 33.6327 279.821L35.0469 278.407C34.285 277.645 33.3937 277.052 32.3819 276.629L31.6103 278.474ZM33.6327 279.821C34.2086 280.397 34.6678 281.073 35.0102 281.858L36.8433 281.058C36.4044 280.052 35.8058 279.166 35.0469 278.407L33.6327 279.821ZM35.0042 281.844C35.3254 282.612 35.4883 283.432 35.4883 284.314L37.4883 284.314C37.4883 283.178 37.2768 282.094 36.8493 281.072L35.0042 281.844ZM35.4883 284.314L35.4883 286.316L37.4883 286.316L37.4883 284.314L35.4883 284.314ZM35.4883 286.316C35.4883 287.198 35.3254 288.019 35.0042 288.787L36.8493 289.559C37.2768 288.536 37.4883 287.453 37.4883 286.316L35.4883 286.316ZM35.0102 288.773C34.6678 289.558 34.2086 290.234 33.6327 290.809L35.0469 292.224C35.8058 291.465 36.4044 290.578 36.8433 289.573L35.0102 288.773ZM33.6327 290.809C33.0569 291.385 32.3808 291.845 31.5961 292.187L32.396 294.02C33.4017 293.581 34.2881 292.983 35.0469 292.224L33.6327 290.809ZM31.6103 292.181C30.8422 292.502 30.0217 292.665 29.1396 292.665L29.1396 294.665C30.2758 294.665 31.3596 294.454 32.3819 294.026L31.6103 292.181ZM29.1396 292.665L0.99023 292.665L0.99023 294.665L29.1396 294.665L29.1396 292.665ZM1.99023 293.665L1.99023 290.662L-0.00977049 290.662L-0.00977036 293.665L1.99023 293.665ZM0.99023 291.662L13.0996 291.662L13.0996 289.662L0.990229 289.662L0.99023 291.662ZM13.7428 289.896C13.0389 289.305 12.4929 288.598 12.0987 287.768L10.2919 288.625C10.8092 289.715 11.5327 290.652 12.4564 291.428L13.7428 289.896ZM12.0987 287.768C11.7102 286.949 11.5117 286.055 11.5117 285.071L9.51171 285.071C9.51171 286.334 9.76899 287.523 10.2919 288.625L12.0987 287.768ZM11.5117 285.071L11.5117 284.314L9.51171 284.314L9.51171 285.071L11.5117 285.071ZM11.5117 284.314C11.5117 283.438 11.6805 282.623 12.0142 281.858L10.1811 281.058C9.7336 282.084 9.51171 283.172 9.51171 284.314L11.5117 284.314ZM12.0202 281.844C12.3458 281.065 12.7946 280.394 13.3673 279.821L11.953 278.407C11.1911 279.169 10.5982 280.06 10.1751 281.072L12.0202 281.844ZM13.3673 279.821C13.9399 279.249 14.6112 278.8 15.3897 278.474L14.6181 276.629C13.6063 277.052 12.715 277.645 11.953 278.407L13.3673 279.821ZM15.4038 278.468C16.1687 278.135 16.9842 277.966 17.8603 277.966L17.8603 275.966C16.7183 275.966 15.6295 276.188 14.604 276.635L15.4038 278.468ZM17.8603 277.966L29.1396 277.966L29.1396 275.966L17.8603 275.966L17.8603 277.966ZM17.6894 278.969C16.9576 278.969 16.2587 279.108 15.6041 279.394L16.4057 281.227C16.7927 281.057 17.2169 280.969 17.6894 280.969L17.6894 278.969ZM15.6143 279.39C14.9657 279.665 14.3927 280.045 13.9062 280.531L15.3204 281.945C15.6151 281.651 15.9698 281.412 16.3954 281.231L15.6143 279.39ZM13.9062 280.531C13.4197 281.018 13.0401 281.591 12.765 282.239L14.6061 283.02C14.7867 282.595 15.0256 282.24 15.3204 281.945L13.9062 280.531ZM12.7694 282.229C12.483 282.884 12.3437 283.583 12.3437 284.314L14.3437 284.314C14.3437 283.842 14.4324 283.418 14.6017 283.031L12.7694 282.229ZM12.3437 284.314L12.3437 286.316L14.3437 286.316L14.3437 284.314L12.3437 284.314ZM12.3437 286.316C12.3437 287.048 12.483 287.751 12.765 288.416L14.6061 287.635C14.4324 287.225 14.3437 286.789 14.3437 286.316L12.3437 286.316ZM12.7694 288.426C13.0457 289.058 13.4248 289.618 13.9062 290.1L15.3204 288.685C15.0205 288.386 14.7811 288.035 14.6017 287.625L12.7694 288.426ZM13.9062 290.1C14.3927 290.586 14.9657 290.966 15.6143 291.241L16.3954 289.4C15.9698 289.219 15.6151 288.98 15.3204 288.685L13.9062 290.1ZM15.6041 291.236C16.2587 291.523 16.9576 291.662 17.6894 291.662L17.6894 289.662C17.2169 289.662 16.7927 289.573 16.4057 289.404L15.6041 291.236ZM17.6894 291.662L29.3105 291.662L29.3105 289.662L17.6894 289.662L17.6894 291.662ZM29.3105 291.662C30.0425 291.662 30.7454 291.523 31.4101 291.241L30.629 289.4C30.2194 289.573 29.783 289.662 29.3105 289.662L29.3105 291.662ZM31.4203 291.236C32.052 290.96 32.6124 290.581 33.0938 290.1L31.6796 288.685C31.3797 288.985 31.0287 289.225 30.6187 289.404L31.4203 291.236ZM33.0938 290.1C33.5752 289.618 33.9542 289.058 34.2306 288.426L32.3983 287.625C32.2189 288.035 31.9795 288.386 31.6796 288.685L33.0938 290.1ZM34.235 288.416C34.517 287.751 34.6562 287.048 34.6562 286.316L32.6562 286.316C32.6562 286.789 32.5676 287.225 32.3939 287.635L34.235 288.416ZM34.6562 286.316L34.6562 284.314L32.6562 284.314L32.6562 286.316L34.6562 286.316ZM34.6562 284.314C34.6562 283.583 34.517 282.884 34.2306 282.229L32.3983 283.031C32.5676 283.418 32.6562 283.842 32.6562 284.314L34.6562 284.314ZM34.235 282.239C33.9599 281.591 33.5803 281.018 33.0938 280.531L31.6796 281.945C31.9744 282.24 32.2133 282.595 32.3939 283.02L34.235 282.239ZM33.0938 280.531C32.6124 280.05 32.052 279.671 31.4203 279.394L30.6187 281.227C31.0287 281.406 31.3797 281.646 31.6796 281.945L33.0938 280.531ZM31.4101 279.39C30.7454 279.108 30.0425 278.969 29.3105 278.969L29.3105 280.969C29.783 280.969 30.2194 281.057 30.629 281.231L31.4101 279.39ZM29.3105 278.969L17.6894 278.969L17.6894 280.969L29.3105 280.969L29.3105 278.969ZM31.9961 249.847L31.5961 250.763L31.6032 250.766L31.6103 250.769L31.9961 249.847ZM35.9268 253.753L36.8493 253.367L36.8464 253.36L36.8433 253.353L35.9268 253.753ZM35.9268 261.468L36.8433 261.868L36.8464 261.861L36.8493 261.854L35.9268 261.468ZM31.9961 265.398L32.3819 266.321L32.389 266.318L32.396 266.315L31.9961 265.398ZM15.0039 265.398L14.604 266.315L14.611 266.318L14.6181 266.321L15.0039 265.398ZM11.0977 261.468L12.0202 261.082L12.0173 261.075L12.0142 261.068L11.0977 261.468ZM11.0976 253.753L12.0142 254.153L12.0173 254.146L12.0202 254.139L11.0976 253.753ZM15.0039 249.847L15.3897 250.769L15.3968 250.766L15.4038 250.763L15.0039 249.847ZM23.7441 249.261L24.7441 249.261L24.7441 248.261L23.7441 248.261L23.7441 249.261ZM23.7441 262.957L22.7441 262.957L22.7441 263.957L23.7441 263.957L23.7441 262.957ZM31.0195 262.615L31.4101 263.536L31.4203 263.531L31.0195 262.615ZM33.3144 260.32L34.2307 260.721L34.235 260.711L33.3144 260.32ZM33.3144 254.925L32.3938 255.315L32.3983 255.326L33.3144 254.925ZM31.0195 252.605L31.4204 251.689L31.4101 251.685L31.0195 252.605ZM27.6504 252.264L26.6633 252.103L26.4746 253.264L27.6504 253.264L27.6504 252.264ZM28.1387 249.261L28.1387 248.261L27.2881 248.261L27.1516 249.1L28.1387 249.261ZM16.0049 252.605L16.3954 253.526L16.4057 253.522L16.0049 252.605ZM13.6855 254.925L14.6018 255.326L14.6061 255.315L13.6855 254.925ZM13.6855 260.32L12.7649 260.711L12.7694 260.721L13.6855 260.32ZM16.0049 262.615L16.4057 261.699L16.3954 261.695L16.0049 262.615ZM21.4004 262.957L21.4004 263.957L22.4004 263.957L22.4004 262.957L21.4004 262.957ZM21.4004 252.264L22.4004 252.264L22.4004 251.264L21.4004 251.264L21.4004 252.264ZM29.1396 250.261C30.0158 250.261 30.8313 250.429 31.5961 250.763L32.396 248.93C31.3705 248.483 30.2817 248.261 29.1396 248.261L29.1396 250.261ZM31.6103 250.769C32.3888 251.095 33.0601 251.544 33.6327 252.116L35.0469 250.702C34.285 249.94 33.3937 249.347 32.3819 248.924L31.6103 250.769ZM33.6327 252.116C34.2086 252.692 34.6678 253.368 35.0102 254.153L36.8433 253.353C36.4044 252.347 35.8057 251.461 35.0469 250.702L33.6327 252.116ZM35.0042 254.139C35.3254 254.907 35.4883 255.727 35.4883 256.609L37.4883 256.609C37.4883 255.473 37.2768 254.389 36.8493 253.367L35.0042 254.139ZM35.4883 256.609L35.4883 258.611L37.4883 258.611L37.4883 256.609L35.4883 256.609ZM35.4883 258.611C35.4883 259.493 35.3254 260.314 35.0042 261.082L36.8493 261.854C37.2768 260.831 37.4883 259.747 37.4883 258.611L35.4883 258.611ZM35.0102 261.068C34.6678 261.853 34.2086 262.529 33.6327 263.104L35.0469 264.519C35.8057 263.76 36.4044 262.873 36.8433 261.868L35.0102 261.068ZM33.6327 263.104C33.0569 263.68 32.3808 264.139 31.5961 264.482L32.396 266.315C33.4017 265.876 34.2881 265.277 35.0469 264.519L33.6327 263.104ZM31.6103 264.476C30.8422 264.797 30.0217 264.96 29.1396 264.96L29.1396 266.96C30.2758 266.96 31.3596 266.749 32.3819 266.321L31.6103 264.476ZM29.1396 264.96L17.8603 264.96L17.8603 266.96L29.1396 266.96L29.1396 264.96ZM17.8603 264.96C16.9783 264.96 16.1578 264.797 15.3897 264.476L14.6181 266.321C15.6404 266.749 16.7242 266.96 17.8603 266.96L17.8603 264.96ZM15.4038 264.482C14.6192 264.139 13.9431 263.68 13.3673 263.104L11.953 264.519C12.7118 265.277 13.5983 265.876 14.604 266.315L15.4038 264.482ZM13.3673 263.104C12.7946 262.532 12.3458 261.861 12.0202 261.082L10.1751 261.854C10.5982 262.865 11.1911 263.757 11.953 264.519L13.3673 263.104ZM12.0142 261.068C11.6805 260.303 11.5117 259.487 11.5117 258.611L9.51171 258.611C9.51171 259.753 9.7336 260.842 10.1811 261.868L12.0142 261.068ZM11.5117 258.611L11.5117 256.609L9.51171 256.609L9.51171 258.611L11.5117 258.611ZM11.5117 256.609C11.5117 255.733 11.6805 254.918 12.0142 254.153L10.1811 253.353C9.7336 254.379 9.51171 255.467 9.51171 256.609L11.5117 256.609ZM12.0202 254.139C12.3458 253.36 12.7946 252.689 13.3673 252.116L11.953 250.702C11.1911 251.464 10.5982 252.355 10.1751 253.367L12.0202 254.139ZM13.3673 252.116C13.9399 251.544 14.6112 251.095 15.3897 250.769L14.6181 248.924C13.6063 249.347 12.715 249.94 11.953 250.702L13.3673 252.116ZM15.4038 250.763C16.1687 250.429 16.9842 250.261 17.8603 250.261L17.8603 248.261C16.7183 248.261 15.6295 248.483 14.604 248.93L15.4038 250.763ZM17.8603 250.261L23.7441 250.261L23.7441 248.261L17.8603 248.261L17.8603 250.261ZM22.7441 249.261L22.7441 262.957L24.7441 262.957L24.7441 249.261L22.7441 249.261ZM23.7441 263.957L29.3105 263.957L29.3105 261.957L23.7441 261.957L23.7441 263.957ZM29.3105 263.957C30.0425 263.957 30.7454 263.818 31.4101 263.536L30.629 261.695C30.2194 261.868 29.783 261.957 29.3105 261.957L29.3105 263.957ZM31.4203 263.531C32.052 263.255 32.6124 262.876 33.0938 262.395L31.6796 260.98C31.3797 261.28 31.0287 261.52 30.6187 261.699L31.4203 263.531ZM33.0938 262.395C33.5752 261.913 33.9542 261.353 34.2306 260.721L32.3983 259.919C32.2189 260.329 31.9795 260.681 31.6796 260.98L33.0938 262.395ZM34.235 260.711C34.517 260.046 34.6562 259.343 34.6562 258.611L32.6562 258.611C32.6562 259.084 32.5676 259.52 32.3939 259.93L34.235 260.711ZM34.6562 258.611L34.6562 256.609L32.6562 256.609L32.6562 258.611L34.6562 258.611ZM34.6562 256.609C34.6562 255.878 34.517 255.179 34.2306 254.524L32.3983 255.326C32.5676 255.713 32.6562 256.137 32.6562 256.609L34.6562 256.609ZM34.235 254.534C33.9599 253.886 33.5803 253.313 33.0938 252.826L31.6796 254.24C31.9744 254.535 32.2133 254.89 32.3939 255.315L34.235 254.534ZM33.0938 252.826C32.6124 252.345 32.052 251.966 31.4203 251.689L30.6187 253.522C31.0287 253.701 31.3797 253.94 31.6796 254.24L33.0938 252.826ZM31.4101 251.685C30.7454 251.403 30.0425 251.264 29.3105 251.264L29.3105 253.264C29.783 253.264 30.2194 253.352 30.629 253.526L31.4101 251.685ZM29.3105 251.264L27.6504 251.264L27.6504 253.264L29.3105 253.264L29.3105 251.264ZM28.6374 252.424L29.1257 249.421L27.1516 249.1L26.6633 252.103L28.6374 252.424ZM28.1387 250.261L29.1396 250.261L29.1396 248.261L28.1387 248.261L28.1387 250.261ZM17.6894 251.264C16.9576 251.264 16.2587 251.403 15.6041 251.689L16.4057 253.522C16.7927 253.352 17.2169 253.264 17.6894 253.264L17.6894 251.264ZM15.6143 251.685C14.9657 251.96 14.3927 252.34 13.9062 252.826L15.3204 254.24C15.6151 253.946 15.9698 253.707 16.3954 253.526L15.6143 251.685ZM13.9062 252.826C13.4197 253.313 13.0401 253.886 12.765 254.534L14.6061 255.315C14.7867 254.89 15.0256 254.535 15.3204 254.24L13.9062 252.826ZM12.7694 254.524C12.483 255.179 12.3437 255.878 12.3437 256.609L14.3437 256.609C14.3437 256.137 14.4324 255.713 14.6017 255.326L12.7694 254.524ZM12.3437 256.609L12.3437 258.611L14.3437 258.611L14.3437 256.609L12.3437 256.609ZM12.3437 258.611C12.3437 259.343 12.483 260.046 12.765 260.711L14.6061 259.93C14.4324 259.52 14.3437 259.084 14.3437 258.611L12.3437 258.611ZM12.7694 260.721C13.0457 261.353 13.4248 261.913 13.9062 262.395L15.3204 260.98C15.0205 260.681 14.7811 260.329 14.6017 259.919L12.7694 260.721ZM13.9062 262.395C14.3927 262.881 14.9657 263.261 15.6143 263.536L16.3954 261.695C15.9698 261.514 15.6151 261.275 15.3204 260.98L13.9062 262.395ZM15.6041 263.531C16.2587 263.818 16.9576 263.957 17.6894 263.957L17.6894 261.957C17.2169 261.957 16.7927 261.868 16.4057 261.699L15.6041 263.531ZM17.6894 263.957L21.4004 263.957L21.4004 261.957L17.6894 261.957L17.6894 263.957ZM22.4004 262.957L22.4004 252.264L20.4004 252.264L20.4004 262.957L22.4004 262.957ZM21.4004 251.264L17.6894 251.264L17.6894 253.264L21.4004 253.264L21.4004 251.264ZM14.1982 232.615L13.2776 233.006L13.2821 233.016L14.1982 232.615ZM16.5176 234.91L16.9184 233.994L16.9081 233.99L16.5176 234.91ZM36 235.252L37 235.252L37 234.252L36 234.252L36 235.252ZM36 238.255L36 239.255L37 239.255L37 238.255L36 238.255ZM11 238.255L9.99999 238.255L9.99999 239.255L11 239.255L11 238.255ZM11 237.254L10.4584 236.413L9.99999 236.709L9.99999 237.254L11 237.254ZM13.5391 235.618L14.0806 236.459L15.2998 235.673L14.1323 234.813L13.5391 235.618ZM11.3418 233.055L12.2276 232.591L12.2249 232.586L11.3418 233.055ZM10.5117 227.903L10.5117 226.903L9.51171 226.903L9.51171 227.903L10.5117 227.903ZM13.8564 227.903L14.8564 227.903L14.8564 226.903L13.8564 226.903L13.8564 227.903ZM12.8564 230.906C12.8564 231.638 12.9957 232.341 13.2777 233.006L15.1188 232.225C14.9451 231.815 14.8564 231.379 14.8564 230.906L12.8564 230.906ZM13.2821 233.016C13.5584 233.648 13.9375 234.208 14.4189 234.69L15.8331 233.275C15.5332 232.975 15.2938 232.624 15.1144 232.214L13.2821 233.016ZM14.4189 234.69C14.9053 235.176 15.4784 235.556 16.127 235.831L16.9081 233.99C16.4825 233.809 16.1278 233.57 15.8331 233.275L14.4189 234.69ZM16.1168 235.826C16.7714 236.113 17.4703 236.252 18.2021 236.252L18.2021 234.252C17.7296 234.252 17.3054 234.163 16.9184 233.994L16.1168 235.826ZM18.2021 236.252L36 236.252L36 234.252L18.2021 234.252L18.2021 236.252ZM35 235.252L35 238.255L37 238.255L37 235.252L35 235.252ZM36 237.255L11 237.255L11 239.255L36 239.255L36 237.255ZM12 238.255L12 237.254L9.99999 237.254L9.99999 238.255L12 238.255ZM11.5416 238.095L14.0806 236.459L12.9975 234.778L10.4584 236.413L11.5416 238.095ZM14.1323 234.813C13.3272 234.22 12.6947 233.482 12.2276 232.591L10.456 233.519C11.0631 234.678 11.8954 235.649 12.9459 236.423L14.1323 234.813ZM12.2249 232.586C11.751 231.693 11.5117 230.724 11.5117 229.661L9.51171 229.661C9.51171 231.04 9.82581 232.333 10.4587 233.524L12.2249 232.586ZM11.5117 229.661L11.5117 227.903L9.51171 227.903L9.51171 229.661L11.5117 229.661ZM10.5117 228.903L13.8564 228.903L13.8564 226.903L10.5117 226.903L10.5117 228.903ZM12.8564 227.903L12.8564 230.906L14.8564 230.906L14.8564 227.903L12.8564 227.903ZM31.2392 182.918L30.8148 183.823L30.8265 183.829L31.2392 182.918ZM33.9736 184.847L33.2522 185.539L33.2593 185.546L33.9736 184.847ZM35.8291 187.654L36.7526 187.271L36.7497 187.264L35.8291 187.654ZM35.8291 196.932L36.7475 197.327L36.7512 197.319L36.7546 197.31L35.8291 196.932ZM33.9736 199.739L34.688 200.439L34.695 200.432L33.9736 199.739ZM31.2392 201.668L31.652 202.579L31.6637 202.573L31.2392 201.668ZM26.5029 202.376L25.5159 202.537L25.6525 203.376L26.5029 203.376L26.5029 202.376ZM25.9902 199.227L25.9902 198.227L24.8143 198.227L25.0032 199.387L25.9902 199.227ZM30.0918 198.763L30.504 199.674L30.5172 199.668L30.5302 199.661L30.0918 198.763ZM31.874 197.469L32.5919 198.165L32.5974 198.159L32.6029 198.153L31.874 197.469ZM33.0703 195.613L33.9928 195.999L33.9959 195.992L33.0703 195.613ZM33.0703 188.948L33.9927 188.562L33.0703 188.948ZM31.874 187.093L32.6029 186.408L32.5974 186.402L32.5919 186.397L31.874 187.093ZM30.0918 185.823L29.6618 186.726L29.6713 186.731L30.0918 185.823ZM23.8418 186.043L23.3325 185.182L23.8418 186.043ZM21.8154 187.923L22.6235 188.512L22.6314 188.501L21.8154 187.923ZM20.375 190.584L21.3035 190.955L21.3056 190.95L20.375 190.584ZM17.9092 196.663L18.8095 197.098L18.8123 197.092L17.9092 196.663ZM16.1514 199.3L16.8886 199.976L16.8962 199.967L16.1514 199.3ZM13.5391 201.18L13.9572 202.088L13.5391 201.18ZM5.75097 201.229L5.35011 202.145L5.36227 202.15L5.75097 201.229ZM1.18554 196.639L2.10693 196.25L2.10395 196.243L1.18554 196.639ZM1.18554 187.679L2.10177 188.08L2.1069 188.067L1.18554 187.679ZM5.75097 183.113L6.1397 184.035L6.15179 184.029L5.75097 183.113ZM9.99901 182.43L10.986 182.269L10.8494 181.43L9.99901 181.43L9.99901 182.43ZM10.5117 185.579L10.5117 186.579L11.6877 186.579L11.4987 185.418L10.5117 185.579ZM6.92284 186.019L7.31678 186.938L7.32483 186.934L6.92284 186.019ZM3.94433 188.997L4.86001 189.399L4.86347 189.391L3.94433 188.997ZM3.94433 195.32L3.02515 195.714L3.02868 195.722L3.94433 195.32ZM5.14062 197.103L4.42238 197.798L4.4279 197.804L4.43351 197.81L5.14062 197.103ZM6.92284 198.299L7.32485 197.383L7.31676 197.38L6.92284 198.299ZM14.5644 196.15L15.3805 196.728L15.3885 196.717L14.5644 196.15ZM15.9805 193.514L16.9035 193.898L16.9074 193.889L16.911 193.88L15.9805 193.514ZM17.2012 190.462L18.1277 190.838L18.1326 190.826L17.2012 190.462ZM18.5683 187.435L19.4568 187.894L19.4613 187.885L19.4657 187.876L18.5683 187.435ZM20.3994 184.773L21.129 185.457L21.1366 185.449L20.3994 184.773ZM27.8945 183.186C28.9409 183.186 29.9104 183.399 30.8148 183.823L31.6637 182.013C30.4848 181.46 29.2244 181.186 27.8945 181.186L27.8945 183.186ZM30.8265 183.829C31.754 184.249 32.5603 184.818 33.2522 185.539L34.695 184.154C33.8245 183.247 32.8078 182.531 31.652 182.007L30.8265 183.829ZM33.2593 185.546C33.9491 186.251 34.4994 187.08 34.9085 188.045L36.7497 187.264C36.2474 186.08 35.5606 185.038 34.688 184.147L33.2593 185.546ZM34.9056 188.038C35.2927 188.97 35.4883 189.962 35.4883 191.023L37.4883 191.023C37.4883 189.709 37.2444 188.455 36.7526 187.271L34.9056 188.038ZM35.4883 191.023L35.4883 193.538L37.4883 193.538L37.4883 191.023L35.4883 191.023ZM35.4883 193.538C35.4883 194.6 35.2927 195.602 34.9035 196.553L36.7546 197.31C37.2444 196.113 37.4883 194.853 37.4883 193.538L35.4883 193.538ZM34.9107 196.536C34.5013 197.486 33.9488 198.321 33.2522 199.047L34.695 200.432C35.5609 199.53 36.2454 198.493 36.7475 197.327L34.9107 196.536ZM33.2593 199.039C32.5641 199.749 31.7517 200.323 30.8148 200.763L31.6637 202.573C32.8101 202.036 33.8206 201.324 34.688 200.439L33.2593 199.039ZM30.8265 200.757C29.9196 201.168 28.946 201.376 27.8945 201.376L27.8945 203.376C29.2193 203.376 30.4756 203.112 31.652 202.579L30.8265 200.757ZM27.8945 201.376L26.5029 201.376L26.5029 203.376L27.8945 203.376L27.8945 201.376ZM27.4899 202.215L26.9772 199.066L25.0032 199.387L25.5159 202.537L27.4899 202.215ZM25.9902 200.227L27.8945 200.227L27.8945 198.227L25.9902 198.227L25.9902 200.227ZM27.8945 200.227C28.8119 200.227 29.6855 200.044 30.504 199.674L29.6796 197.852C29.1309 198.1 28.5396 198.227 27.8945 198.227L27.8945 200.227ZM30.5302 199.661C31.3025 199.285 31.991 198.785 32.5919 198.165L31.1561 196.773C30.7154 197.227 30.2157 197.59 29.6534 197.864L30.5302 199.661ZM32.6029 198.153C33.1917 197.527 33.655 196.806 33.9927 195.999L32.1479 195.227C31.8997 195.82 31.5654 196.337 31.1452 196.784L32.6029 198.153ZM33.9959 195.992C34.3385 195.154 34.5098 194.277 34.5098 193.367L32.5098 193.367C32.5098 194.02 32.3881 194.64 32.1448 195.235L33.9959 195.992ZM34.5098 193.367L34.5098 191.17L32.5098 191.17L32.5098 193.367L34.5098 193.367ZM34.5098 191.17C34.5098 190.26 34.3384 189.388 33.9927 188.562L32.1479 189.334C32.3881 189.908 32.5098 190.517 32.5098 191.17L34.5098 191.17ZM33.9927 188.562C33.655 187.755 33.1917 187.035 32.6029 186.408L31.1452 187.777C31.5654 188.225 31.8997 188.741 32.1479 189.334L33.9927 188.562ZM32.5919 186.397C31.9872 185.773 31.2928 185.278 30.5122 184.916L29.6713 186.731C30.2254 186.987 30.7191 187.338 31.1561 187.789L32.5919 186.397ZM30.5217 184.92C29.6995 184.529 28.8196 184.335 27.8945 184.335L27.8945 186.335C28.5319 186.335 29.1169 186.467 29.6619 186.726L30.5217 184.92ZM27.8945 184.335L26.8447 184.335L26.8447 186.335L27.8945 186.335L27.8945 184.335ZM26.8447 184.335C25.5136 184.335 24.3239 184.596 23.3325 185.182L24.3511 186.904C24.9548 186.546 25.767 186.335 26.8447 186.335L26.8447 184.335ZM23.3325 185.182C22.4099 185.728 21.6313 186.453 20.9994 187.345L22.6314 188.501C23.1063 187.83 23.6786 187.302 24.3511 186.904L23.3325 185.182ZM21.0074 187.334C20.3827 188.19 19.8631 189.154 19.4444 190.218L21.3056 190.95C21.6682 190.028 22.1088 189.218 22.6234 188.512L21.0074 187.334ZM19.4465 190.213C19.053 191.196 18.6598 192.212 18.2668 193.26L20.1394 193.962C20.5277 192.927 20.9157 191.925 21.3035 190.955L19.4465 190.213ZM18.2668 193.26C17.886 194.276 17.4657 195.267 17.006 196.234L18.8123 197.092C19.2966 196.074 19.739 195.03 20.1394 193.962L18.2668 193.26ZM17.0088 196.228C16.5761 197.123 16.0418 197.923 15.4065 198.633L16.8962 199.967C17.6606 199.114 18.2982 198.156 18.8095 197.098L17.0088 196.228ZM15.4142 198.624C14.7936 199.301 14.0335 199.851 13.1209 200.271L13.9572 202.088C15.0954 201.564 16.0768 200.861 16.8885 199.976L15.4142 198.624ZM13.1209 200.271C12.2621 200.667 11.1528 200.888 9.75487 200.888L9.75487 202.888C11.3517 202.888 12.7652 202.637 13.9572 202.088L13.1209 200.271ZM9.75487 200.888L9.09569 200.888L9.09569 202.888L9.75487 202.888L9.75487 200.888ZM9.09569 200.888C8.03414 200.888 7.0521 200.692 6.13967 200.307L5.36227 202.15C6.53317 202.644 7.78095 202.888 9.09569 202.888L9.09569 200.888ZM6.15179 200.312C5.22097 199.905 4.4142 199.356 3.7237 198.666L2.30949 200.08C3.18148 200.952 4.19763 201.64 5.35015 202.145L6.15179 200.312ZM3.7237 198.666C3.0359 197.978 2.49736 197.175 2.1069 196.25L0.264174 197.027C0.752624 198.185 1.43478 199.205 2.30949 200.08L3.7237 198.666ZM2.10395 196.243C1.70375 195.314 1.50194 194.326 1.50194 193.27L-0.498056 193.27C-0.498056 194.589 -0.244135 195.847 0.267126 197.034L2.10395 196.243ZM1.50194 193.27L1.50194 191.023L-0.498056 191.023L-0.498056 193.27L1.50194 193.27ZM1.50194 191.023C1.50194 189.967 1.70375 188.989 2.1017 188.08L0.26938 187.278C-0.244131 188.452 -0.498056 189.704 -0.498056 191.023L1.50194 191.023ZM2.1069 188.067C2.49736 187.142 3.0359 186.339 3.7237 185.651L2.30949 184.237C1.43478 185.112 0.752624 186.132 0.264174 187.29L2.1069 188.067ZM3.7237 185.651C4.41149 184.964 5.21414 184.425 6.13967 184.035L5.36227 182.192C4.20446 182.68 3.18419 183.363 2.30949 184.237L3.7237 185.651ZM6.15179 184.029C7.06138 183.631 8.03916 183.43 9.09569 183.43L9.09569 181.43C7.77592 181.43 6.52389 181.684 5.35015 182.197L6.15179 184.029ZM9.09569 183.43L9.99901 183.43L9.99901 181.43L9.09569 181.43L9.09569 183.43ZM9.01201 182.59L9.5247 185.74L11.4987 185.418L10.986 182.269L9.01201 182.59ZM10.5117 184.579L9.09569 184.579L9.09569 186.579L10.5117 186.579L10.5117 184.579ZM9.09569 184.579C8.18616 184.579 7.32382 184.75 6.52085 185.103L7.32483 186.934C7.8565 186.701 8.44273 186.579 9.09569 186.579L9.09569 184.579ZM6.52892 185.099C5.73343 185.44 5.03181 185.909 4.43351 186.508L5.84772 187.922C6.25853 187.511 6.74507 187.183 7.31676 186.938L6.52892 185.099ZM4.43351 186.508C3.83521 187.106 3.36611 187.808 3.02518 188.603L4.86347 189.391C5.10848 188.819 5.43691 188.333 5.84772 187.922L4.43351 186.508ZM3.02868 188.595C2.67616 189.398 2.50487 190.26 2.50487 191.17L4.50487 191.17C4.50487 190.517 4.62656 189.931 4.85997 189.399L3.02868 188.595ZM2.50487 191.17L2.50487 193.123L4.50487 193.123L4.50487 191.17L2.50487 191.17ZM2.50487 193.123C2.50487 194.033 2.67619 194.9 3.02518 195.714L4.86347 194.926C4.62652 194.374 4.50487 193.776 4.50487 193.123L2.50487 193.123ZM3.02868 195.722C3.36921 196.498 3.83465 197.192 4.42238 197.798L5.85886 196.407C5.43747 195.972 5.10538 195.477 4.85997 194.918L3.02868 195.722ZM4.43351 197.81C5.03181 198.408 5.73343 198.877 6.52892 199.218L7.31676 197.38C6.74507 197.135 6.25853 196.806 5.84772 196.395L4.43351 197.81ZM6.52085 199.214C7.32382 199.567 8.18616 199.738 9.09569 199.738L9.09569 197.738C8.44273 197.738 7.8565 197.617 7.32483 197.383L6.52085 199.214ZM9.09569 199.738L9.75487 199.738L9.75487 197.738L9.09569 197.738L9.09569 199.738ZM9.75487 199.738C11.0174 199.738 12.1542 199.472 13.112 198.881L12.0618 197.179C11.4897 197.532 10.7384 197.738 9.75487 197.738L9.75487 199.738ZM13.112 198.881C13.9986 198.334 14.7546 197.612 15.3805 196.728L13.7484 195.572C13.2676 196.251 12.7051 196.782 12.0618 197.179L13.112 198.881ZM15.3885 196.717C15.969 195.872 16.473 194.932 16.9035 193.898L15.0574 193.129C14.6741 194.049 14.2341 194.866 13.7404 195.584L15.3885 196.717ZM16.911 193.88C17.3002 192.891 17.7058 191.877 18.1276 190.838L16.2747 190.086C15.8502 191.13 15.4419 192.151 15.0499 193.148L16.911 193.88ZM18.1326 190.826C18.5271 189.816 18.9685 188.839 19.4568 187.894L17.6799 186.976C17.1591 187.984 16.6891 189.025 16.2697 190.098L18.1326 190.826ZM19.4657 187.876C19.9118 186.969 20.4664 186.164 21.1289 185.457L19.6699 184.089C18.8676 184.945 18.2015 185.915 17.671 186.993L19.4657 187.876ZM21.1366 185.449C21.7545 184.775 22.5203 184.225 23.4489 183.804L22.6234 181.983C21.4687 182.506 20.4766 183.209 19.6622 184.098L21.1366 185.449ZM23.4489 183.804C24.3273 183.406 25.4476 183.186 26.8447 183.186L26.8447 181.186C25.2471 181.186 23.8282 181.437 22.6234 181.983L23.4489 183.804ZM26.8447 183.186L27.8945 183.186L27.8945 181.186L26.8447 181.186L26.8447 183.186ZM31.9961 155.286L31.5961 156.203L31.6032 156.206L31.6103 156.209L31.9961 155.286ZM35.9267 159.192L36.8493 158.807L36.8464 158.799L36.8433 158.792L35.9267 159.192ZM35.9267 166.907L36.8433 167.307L36.8464 167.3L36.8493 167.293L35.9267 166.907ZM31.9961 170.838L32.3819 171.76L32.389 171.758L32.396 171.754L31.9961 170.838ZM15.0039 170.838L14.604 171.754L14.611 171.758L14.6181 171.76L15.0039 170.838ZM11.0976 166.907L12.0202 166.521L12.0173 166.514L12.0142 166.507L11.0976 166.907ZM11.0976 159.192L12.0142 159.592L12.0173 159.585L12.0202 159.578L11.0976 159.192ZM15.0039 155.286L15.3897 156.209L15.3968 156.206L15.4038 156.203L15.0039 155.286ZM18.8613 154.7L19.8484 154.54L19.7118 153.7L18.8613 153.7L18.8613 154.7ZM19.3496 157.703L19.3496 158.703L20.5253 158.703L20.3366 157.543L19.3496 157.703ZM16.0049 158.045L16.3954 158.966L16.4057 158.961L16.0049 158.045ZM13.6855 160.364L14.6018 160.765L14.6061 160.755L13.6855 160.364ZM13.6855 165.76L12.7649 166.15L12.7694 166.161L13.6855 165.76ZM16.0049 168.055L16.4057 167.138L16.3954 167.134L16.0049 168.055ZM31.0195 168.055L31.4101 168.975L31.4203 168.971L31.0195 168.055ZM33.3144 165.76L34.2307 166.161L34.235 166.15L33.3144 165.76ZM33.3144 160.364L32.3938 160.755L32.3983 160.765L33.3144 160.364ZM31.0195 158.045L31.4204 157.129L31.4101 157.124L31.0195 158.045ZM27.6504 157.703L26.6633 157.543L26.4746 158.703L27.6504 158.703L27.6504 157.703ZM28.1387 154.7L28.1387 153.7L27.2881 153.7L27.1516 154.54L28.1387 154.7ZM29.1396 155.7C30.0158 155.7 30.8313 155.869 31.5961 156.203L32.396 154.37C31.3705 153.922 30.2817 153.7 29.1396 153.7L29.1396 155.7ZM31.6103 156.209C32.3888 156.534 33.0601 156.983 33.6327 157.556L35.0469 156.142C34.285 155.38 33.3937 154.787 32.3819 154.364L31.6103 156.209ZM33.6327 157.556C34.2086 158.132 34.6678 158.808 35.0102 159.592L36.8433 158.792C36.4044 157.787 35.8057 156.9 35.0469 156.142L33.6327 157.556ZM35.0042 159.578C35.3254 160.346 35.4883 161.167 35.4883 162.049L37.4883 162.049C37.4883 160.913 37.2768 159.829 36.8493 158.807L35.0042 159.578ZM35.4883 162.049L35.4883 164.051L37.4883 164.051L37.4883 162.049L35.4883 162.049ZM35.4883 164.051C35.4883 164.933 35.3254 165.753 35.0042 166.521L36.8493 167.293C37.2768 166.271 37.4883 165.187 37.4883 164.051L35.4883 164.051ZM35.0102 166.507C34.6678 167.292 34.2086 167.968 33.6327 168.544L35.0469 169.958C35.8057 169.199 36.4044 168.313 36.8433 167.307L35.0102 166.507ZM33.6327 168.544C33.0569 169.12 32.3808 169.579 31.5961 169.921L32.396 171.754C33.4017 171.316 34.2881 170.717 35.0469 169.958L33.6327 168.544ZM31.6103 169.915C30.8422 170.237 30.0217 170.399 29.1396 170.399L29.1396 172.399C30.2758 172.399 31.3596 172.188 32.3819 171.76L31.6103 169.915ZM29.1396 170.399L17.8603 170.399L17.8603 172.399L29.1396 172.399L29.1396 170.399ZM17.8603 170.399C16.9783 170.399 16.1578 170.237 15.3897 169.915L14.6181 171.76C15.6404 172.188 16.7242 172.399 17.8603 172.399L17.8603 170.399ZM15.4038 169.921C14.6192 169.579 13.9431 169.12 13.3673 168.544L11.953 169.958C12.7118 170.717 13.5983 171.316 14.604 171.754L15.4038 169.921ZM13.3673 168.544C12.7946 167.971 12.3458 167.3 12.0202 166.521L10.1751 167.293C10.5982 168.305 11.1911 169.196 11.953 169.958L13.3673 168.544ZM12.0142 166.507C11.6804 165.742 11.5117 164.927 11.5117 164.051L9.51171 164.051C9.51171 165.193 9.73359 166.282 10.1811 167.307L12.0142 166.507ZM11.5117 164.051L11.5117 162.049L9.51171 162.049L9.51171 164.051L11.5117 164.051ZM11.5117 162.049C11.5117 161.173 11.6804 160.357 12.0142 159.592L10.1811 158.792C9.73359 159.818 9.51171 160.907 9.51171 162.049L11.5117 162.049ZM12.0202 159.578C12.3458 158.8 12.7946 158.128 13.3673 157.556L11.953 156.142C11.1911 156.904 10.5982 157.795 10.1751 158.807L12.0202 159.578ZM13.3673 157.556C13.9399 156.983 14.6112 156.534 15.3897 156.209L14.6181 154.364C13.6063 154.787 12.715 155.38 11.953 156.142L13.3673 157.556ZM15.4038 156.203C16.1687 155.869 16.9842 155.7 17.8603 155.7L17.8603 153.7C16.7183 153.7 15.6295 153.922 14.604 154.37L15.4038 156.203ZM17.8603 155.7L18.8613 155.7L18.8613 153.7L17.8603 153.7L17.8603 155.7ZM17.8743 154.861L18.3626 157.864L20.3366 157.543L19.8484 154.54L17.8743 154.861ZM19.3496 156.703L17.6894 156.703L17.6894 158.703L19.3496 158.703L19.3496 156.703ZM17.6894 156.703C16.9576 156.703 16.2587 156.842 15.6041 157.129L16.4057 158.961C16.7927 158.792 17.2169 158.703 17.6894 158.703L17.6894 156.703ZM15.6143 157.124C14.9657 157.4 14.3926 157.779 13.9062 158.266L15.3204 159.68C15.6151 159.385 15.9698 159.146 16.3954 158.965L15.6143 157.124ZM13.9062 158.266C13.4197 158.752 13.0401 159.325 12.765 159.974L14.6061 160.755C14.7867 160.329 15.0256 159.975 15.3204 159.68L13.9062 158.266ZM12.7694 159.963C12.483 160.618 12.3437 161.317 12.3437 162.049L14.3437 162.049C14.3437 161.576 14.4324 161.152 14.6017 160.765L12.7694 159.963ZM12.3437 162.049L12.3437 164.051L14.3437 164.051L14.3437 162.049L12.3437 162.049ZM12.3437 164.051C12.3437 164.783 12.483 165.486 12.765 166.15L14.6061 165.369C14.4324 164.96 14.3437 164.523 14.3437 164.051L12.3437 164.051ZM12.7694 166.161C13.0457 166.792 13.4248 167.353 13.9062 167.834L15.3204 166.42C15.0205 166.12 14.7811 165.769 14.6017 165.359L12.7694 166.161ZM13.9062 167.834C14.3926 168.321 14.9657 168.7 15.6143 168.975L16.3954 167.134C15.9698 166.954 15.6151 166.715 15.3204 166.42L13.9062 167.834ZM15.6041 168.971C16.2587 169.257 16.9576 169.396 17.6894 169.396L17.6894 167.396C17.2169 167.396 16.7927 167.308 16.4057 167.139L15.6041 168.971ZM17.6894 169.396L29.3105 169.396L29.3105 167.396L17.6894 167.396L17.6894 169.396ZM29.3105 169.396C30.0425 169.396 30.7454 169.257 31.4101 168.975L30.629 167.134C30.2194 167.308 29.783 167.396 29.3105 167.396L29.3105 169.396ZM31.4203 168.971C32.052 168.694 32.6124 168.315 33.0938 167.834L31.6796 166.42C31.3797 166.72 31.0287 166.959 30.6187 167.139L31.4203 168.971ZM33.0938 167.834C33.5752 167.353 33.9542 166.792 34.2306 166.161L32.3983 165.359C32.2189 165.769 31.9795 166.12 31.6796 166.42L33.0938 167.834ZM34.235 166.15C34.517 165.486 34.6562 164.783 34.6562 164.051L32.6562 164.051C32.6562 164.523 32.5676 164.96 32.3939 165.369L34.235 166.15ZM34.6562 164.051L34.6562 162.049L32.6562 162.049L32.6562 164.051L34.6562 164.051ZM34.6562 162.049C34.6562 161.317 34.517 160.618 34.2306 159.963L32.3983 160.765C32.5676 161.152 32.6562 161.576 32.6562 162.049L34.6562 162.049ZM34.235 159.974C33.9598 159.325 33.5803 158.752 33.0938 158.266L31.6796 159.68C31.9744 159.975 32.2133 160.329 32.3939 160.755L34.235 159.974ZM33.0938 158.266C32.6124 157.784 32.052 157.405 31.4203 157.129L30.6187 158.961C31.0287 159.14 31.3797 159.38 31.6796 159.68L33.0938 158.266ZM31.4101 157.124C30.7454 156.842 30.0425 156.703 29.3105 156.703L29.3105 158.703C29.783 158.703 30.2194 158.792 30.629 158.965L31.4101 157.124ZM29.3105 156.703L27.6504 156.703L27.6504 158.703L29.3105 158.703L29.3105 156.703ZM28.6374 157.864L29.1257 154.861L27.1516 154.54L26.6633 157.543L28.6374 157.864ZM28.1387 155.7L29.1396 155.7L29.1396 153.7L28.1387 153.7L28.1387 155.7ZM36 129.998L36 130.998L37 130.998L37 129.998L36 129.998ZM16.0049 130.34L16.3954 131.26L16.4057 131.256L16.0049 130.34ZM13.6855 132.659L14.6017 133.06L14.6061 133.05L13.6855 132.659ZM13.6855 138.055L12.7649 138.445L12.7694 138.456L13.6855 138.055ZM16.0049 140.35L16.4057 139.433L16.3954 139.429L16.0049 140.35ZM36 140.691L37 140.691L37 139.691L36 139.691L36 140.691ZM36 143.694L36 144.694L37 144.694L37 143.694L36 143.694ZM0.990223 143.694L-0.00977692 143.694L-0.00977687 144.694L0.990223 144.694L0.990223 143.694ZM0.990223 140.691L0.990223 139.691L-0.00977709 139.691L-0.00977705 140.691L0.990223 140.691ZM13.0996 140.691L13.0996 141.691L15.8448 141.691L13.7428 139.926L13.0996 140.691ZM11.1953 138.226L12.0987 137.797L11.1953 138.226ZM11.0976 131.487L12.0142 131.887L12.0173 131.88L12.0202 131.873L11.0976 131.487ZM15.0039 127.581L15.3897 128.504L15.3968 128.501L15.4038 128.498L15.0039 127.581ZM36 126.995L37 126.995L37 125.995L36 125.995L36 126.995ZM36 128.998L17.6894 128.998L17.6894 130.998L36 130.998L36 128.998ZM17.6894 128.998C16.9576 128.998 16.2587 129.137 15.6041 129.424L16.4057 131.256C16.7927 131.087 17.2169 130.998 17.6894 130.998L17.6894 128.998ZM15.6143 129.419C14.9657 129.694 14.3926 130.074 13.9062 130.56L15.3204 131.975C15.6151 131.68 15.9698 131.441 16.3954 131.26L15.6143 129.419ZM13.9062 130.56C13.4197 131.047 13.0401 131.62 12.765 132.269L14.6061 133.05C14.7867 132.624 15.0256 132.269 15.3204 131.975L13.9062 130.56ZM12.7694 132.258C12.483 132.913 12.3437 133.612 12.3437 134.344L14.3437 134.344C14.3437 133.871 14.4324 133.447 14.6017 133.06L12.7694 132.258ZM12.3437 134.344L12.3437 136.346L14.3437 136.346L14.3437 134.344L12.3437 134.344ZM12.3437 136.346C12.3437 137.078 12.483 137.781 12.765 138.445L14.6061 137.664C14.4324 137.255 14.3437 136.818 14.3437 136.346L12.3437 136.346ZM12.7694 138.456C13.0457 139.087 13.4248 139.648 13.9062 140.129L15.3204 138.715C15.0205 138.415 14.7811 138.064 14.6017 137.654L12.7694 138.456ZM13.9062 140.129C14.3926 140.615 14.9657 140.995 15.6143 141.27L16.3954 139.429C15.9698 139.248 15.6151 139.01 15.3204 138.715L13.9062 140.129ZM15.6041 141.266C16.2587 141.552 16.9576 141.691 17.6894 141.691L17.6894 139.691C17.2169 139.691 16.7927 139.603 16.4057 139.433L15.6041 141.266ZM17.6894 141.691L36 141.691L36 139.691L17.6894 139.691L17.6894 141.691ZM35 140.691L35 143.694L37 143.694L37 140.691L35 140.691ZM36 142.694L0.990223 142.694L0.990223 144.694L36 144.694L36 142.694ZM1.99022 143.694L1.99022 140.691L-0.00977705 140.691L-0.00977692 143.694L1.99022 143.694ZM0.990223 141.691L13.0996 141.691L13.0996 139.691L0.990223 139.691L0.990223 141.691ZM13.7428 139.926C13.0389 139.334 12.4929 138.627 12.0987 137.797L10.2919 138.654C10.8091 139.744 11.5327 140.681 12.4564 141.457L13.7428 139.926ZM12.0987 137.797C11.7102 136.978 11.5117 136.084 11.5117 135.101L9.51171 135.101C9.51171 136.363 9.76898 137.553 10.2919 138.654L12.0987 137.797ZM11.5117 135.101L11.5117 134.344L9.51171 134.344L9.51171 135.101L11.5117 135.101ZM11.5117 134.344C11.5117 133.468 11.6804 132.652 12.0142 131.887L10.1811 131.087C9.73359 132.113 9.51171 133.202 9.51171 134.344L11.5117 134.344ZM12.0202 131.873C12.3458 131.095 12.7946 130.423 13.3673 129.851L11.953 128.436C11.1911 129.198 10.5982 130.09 10.1751 131.102L12.0202 131.873ZM13.3673 129.851C13.9399 129.278 14.6112 128.829 15.3897 128.504L14.6181 126.658C13.6063 127.082 12.715 127.674 11.953 128.436L13.3673 129.851ZM15.4038 128.498C16.1687 128.164 16.9842 127.995 17.8603 127.995L17.8603 125.995C16.7183 125.995 15.6295 126.217 14.6039 126.665L15.4038 128.498ZM17.8603 127.995L36 127.995L36 125.995L17.8603 125.995L17.8603 127.995ZM35 126.995L35 129.998L37 129.998L37 126.995L35 126.995ZM31.9961 99.876L31.5961 100.793L31.6032 100.796L31.6103 100.799L31.9961 99.876ZM35.9267 103.782L36.8493 103.396L36.8464 103.389L36.8433 103.382L35.9267 103.782ZM35.9267 111.497L36.8433 111.897L36.8464 111.89L36.8493 111.883L35.9267 111.497ZM31.9961 115.428L32.3819 116.35L32.389 116.347L32.396 116.344L31.9961 115.428ZM15.0039 115.428L14.6039 116.344L14.611 116.347L14.6181 116.35L15.0039 115.428ZM11.0976 111.497L12.0202 111.111L12.0173 111.104L12.0142 111.097L11.0976 111.497ZM11.0976 103.782L12.0142 104.182L12.0173 104.175L12.0202 104.168L11.0976 103.782ZM15.0039 99.876L15.3897 100.799L15.3968 100.796L15.4038 100.793L15.0039 99.876ZM23.7441 99.29L24.7441 99.29L24.7441 98.29L23.7441 98.29L23.7441 99.29ZM23.7441 112.986L22.7441 112.986L22.7441 113.986L23.7441 113.986L23.7441 112.986ZM31.0195 112.645L31.4101 113.565L31.4203 113.561L31.0195 112.645ZM33.3144 110.35L34.2307 110.75L34.235 110.74L33.3144 110.35ZM33.3144 104.954L32.3938 105.345L32.3983 105.355L33.3144 104.954ZM31.0195 102.635L31.4204 101.719L31.4101 101.714L31.0195 102.635ZM27.6504 102.293L26.6633 102.132L26.4746 103.293L27.6504 103.293L27.6504 102.293ZM28.1387 99.29L28.1387 98.29L27.2881 98.29L27.1516 99.1295L28.1387 99.29ZM16.0049 102.635L16.3954 103.555L16.4057 103.551L16.0049 102.635ZM13.6855 104.954L14.6017 105.355L14.6061 105.345L13.6855 104.954ZM13.6855 110.35L12.7649 110.74L12.7694 110.75L13.6855 110.35ZM16.0049 112.645L16.4057 111.728L16.3954 111.724L16.0049 112.645ZM21.4004 112.986L21.4004 113.986L22.4004 113.986L22.4004 112.986L21.4004 112.986ZM21.4004 102.293L22.4004 102.293L22.4004 101.293L21.4004 101.293L21.4004 102.293ZM29.1396 100.29C30.0158 100.29 30.8313 100.459 31.5961 100.793L32.396 98.9594C31.3705 98.5119 30.2817 98.29 29.1396 98.29L29.1396 100.29ZM31.6103 100.799C32.3888 101.124 33.0601 101.573 33.6327 102.146L35.0469 100.731C34.285 99.9694 33.3937 99.3765 32.3819 98.9534L31.6103 100.799ZM33.6327 102.146C34.2086 102.721 34.6678 103.397 35.0102 104.182L36.8433 103.382C36.4044 102.377 35.8057 101.49 35.0469 100.731L33.6327 102.146ZM35.0042 104.168C35.3254 104.936 35.4883 105.757 35.4883 106.639L37.4883 106.639C37.4883 105.503 37.2768 104.419 36.8493 103.396L35.0042 104.168ZM35.4883 106.639L35.4883 108.641L37.4883 108.641L37.4883 106.639L35.4883 106.639ZM35.4883 108.641C35.4883 109.523 35.3254 110.343 35.0042 111.111L36.8493 111.883C37.2768 110.861 37.4883 109.777 37.4883 108.641L35.4883 108.641ZM35.0102 111.097C34.6678 111.882 34.2086 112.558 33.6327 113.134L35.0469 114.548C35.8057 113.789 36.4044 112.903 36.8433 111.897L35.0102 111.097ZM33.6327 113.134C33.0569 113.71 32.3808 114.169 31.5961 114.511L32.396 116.344C33.4017 115.905 34.2881 115.307 35.0469 114.548L33.6327 113.134ZM31.6103 114.505C30.8422 114.826 30.0217 114.989 29.1396 114.989L29.1396 116.989C30.2758 116.989 31.3596 116.778 32.3819 116.35L31.6103 114.505ZM29.1396 114.989L17.8603 114.989L17.8603 116.989L29.1396 116.989L29.1396 114.989ZM17.8603 114.989C16.9783 114.989 16.1578 114.826 15.3897 114.505L14.6181 116.35C15.6404 116.778 16.7242 116.989 17.8603 116.989L17.8603 114.989ZM15.4038 114.511C14.6192 114.169 13.9431 113.71 13.3673 113.134L11.953 114.548C12.7118 115.307 13.5983 115.905 14.6039 116.344L15.4038 114.511ZM13.3673 113.134C12.7946 112.561 12.3458 111.89 12.0202 111.111L10.1751 111.883C10.5982 112.895 11.1911 113.786 11.953 114.548L13.3673 113.134ZM12.0142 111.097C11.6804 110.332 11.5117 109.517 11.5117 108.641L9.51171 108.641C9.51171 109.783 9.73359 110.871 10.1811 111.897L12.0142 111.097ZM11.5117 108.641L11.5117 106.639L9.51171 106.639L9.51171 108.641L11.5117 108.641ZM11.5117 106.639C11.5117 105.763 11.6804 104.947 12.0142 104.182L10.1811 103.382C9.73359 104.408 9.51171 105.497 9.51171 106.639L11.5117 106.639ZM12.0202 104.168C12.3458 103.389 12.7946 102.718 13.3673 102.146L11.953 100.731C11.1911 101.493 10.5982 102.385 10.1751 103.396L12.0202 104.168ZM13.3673 102.146C13.9399 101.573 14.6112 101.124 15.3897 100.799L14.6181 98.9534C13.6063 99.3765 12.715 99.9694 11.953 100.731L13.3673 102.146ZM15.4038 100.793C16.1687 100.459 16.9842 100.29 17.8603 100.29L17.8603 98.29C16.7183 98.29 15.6295 98.5119 14.6039 98.9594L15.4038 100.793ZM17.8603 100.29L23.7441 100.29L23.7441 98.29L17.8603 98.29L17.8603 100.29ZM22.7441 99.29L22.7441 112.986L24.7441 112.986L24.7441 99.29L22.7441 99.29ZM23.7441 113.986L29.3105 113.986L29.3105 111.986L23.7441 111.986L23.7441 113.986ZM29.3105 113.986C30.0425 113.986 30.7454 113.847 31.4101 113.565L30.629 111.724C30.2194 111.898 29.783 111.986 29.3105 111.986L29.3105 113.986ZM31.4203 113.561C32.052 113.284 32.6124 112.905 33.0938 112.424L31.6796 111.01C31.3797 111.31 31.0287 111.549 30.6187 111.728L31.4203 113.561ZM33.0938 112.424C33.5752 111.943 33.9542 111.382 34.2306 110.75L32.3983 109.949C32.2189 110.359 31.9795 110.71 31.6796 111.01L33.0938 112.424ZM34.235 110.74C34.517 110.075 34.6562 109.373 34.6562 108.641L32.6562 108.641C32.6562 109.113 32.5676 109.549 32.3939 109.959L34.235 110.74ZM34.6562 108.641L34.6562 106.639L32.6562 106.639L32.6562 108.641L34.6562 108.641ZM34.6562 106.639C34.6562 105.907 34.517 105.208 34.2306 104.553L32.3983 105.355C32.5676 105.742 32.6562 106.166 32.6562 106.639L34.6562 106.639ZM34.235 104.564C33.9598 103.915 33.5803 103.342 33.0938 102.855L31.6796 104.27C31.9744 104.564 32.2133 104.919 32.3939 105.345L34.235 104.564ZM33.0938 102.855C32.6124 102.374 32.052 101.995 31.4203 101.719L30.6187 103.551C31.0287 103.73 31.3797 103.97 31.6796 104.27L33.0938 102.855ZM31.4101 101.714C30.7454 101.432 30.0425 101.293 29.3105 101.293L29.3105 103.293C29.783 103.293 30.2194 103.382 30.629 103.555L31.4101 101.714ZM29.3105 101.293L27.6504 101.293L27.6504 103.293L29.3105 103.293L29.3105 101.293ZM28.6374 102.453L29.1257 99.4505L27.1516 99.1295L26.6633 102.132L28.6374 102.453ZM28.1387 100.29L29.1396 100.29L29.1396 98.29L28.1387 98.29L28.1387 100.29ZM17.6894 101.293C16.9576 101.293 16.2587 101.432 15.604 101.719L16.4057 103.551C16.7927 103.382 17.2169 103.293 17.6894 103.293L17.6894 101.293ZM15.6143 101.714C14.9657 101.989 14.3926 102.369 13.9062 102.855L15.3204 104.27C15.6151 103.975 15.9698 103.736 16.3954 103.555L15.6143 101.714ZM13.9062 102.855C13.4197 103.342 13.0401 103.915 12.765 104.564L14.6061 105.345C14.7867 104.919 15.0256 104.564 15.3204 104.27L13.9062 102.855ZM12.7694 104.553C12.483 105.208 12.3437 105.907 12.3437 106.639L14.3437 106.639C14.3437 106.166 14.4324 105.742 14.6017 105.355L12.7694 104.553ZM12.3437 106.639L12.3437 108.641L14.3437 108.641L14.3437 106.639L12.3437 106.639ZM12.3437 108.641C12.3437 109.373 12.483 110.075 12.765 110.74L14.6061 109.959C14.4324 109.549 14.3437 109.113 14.3437 108.641L12.3437 108.641ZM12.7694 110.75C13.0457 111.382 13.4248 111.943 13.9062 112.424L15.3204 111.01C15.0205 110.71 14.7811 110.359 14.6017 109.949L12.7694 110.75ZM13.9062 112.424C14.3926 112.91 14.9657 113.29 15.6143 113.565L16.3954 111.724C15.9698 111.543 15.6151 111.304 15.3204 111.01L13.9062 112.424ZM15.6041 113.561C16.2587 113.847 16.9576 113.986 17.6894 113.986L17.6894 111.986C17.2169 111.986 16.7927 111.898 16.4057 111.728L15.6041 113.561ZM17.6894 113.986L21.4004 113.986L21.4004 111.986L17.6894 111.986L17.6894 113.986ZM22.4004 112.986L22.4004 102.293L20.4004 102.293L20.4004 112.986L22.4004 112.986ZM21.4004 101.293L17.6894 101.293L17.6894 103.293L21.4004 103.293L21.4004 101.293ZM36 72.5859L36.5472 73.4229L37 73.1269L37 72.5859L36 72.5859ZM33.4609 74.2461L32.9137 73.4091L31.7086 74.1971L32.8677 75.0511L33.4609 74.2461ZM35.6826 76.8096L36.5685 76.3455L36.5626 76.3346L35.6826 76.8096ZM35.9267 83.792L36.8433 84.1919L36.8464 84.1849L36.8493 84.1778L35.9267 83.792ZM31.9961 87.7227L32.3819 88.6452L32.389 88.6423L32.396 88.6392L31.9961 87.7227ZM15.0039 87.7227L14.6039 88.6392L14.611 88.6423L14.6181 88.6452L15.0039 87.7227ZM11.0976 83.792L12.0202 83.4062L12.0173 83.3991L12.0142 83.3921L11.0976 83.792ZM11.1953 77.0537L12.0987 77.4825L11.1953 77.0537ZM13.0996 74.5879L13.7428 75.3536L15.8448 73.5879L13.0996 73.5879L13.0996 74.5879ZM0.99022 74.5879L-0.00977994 74.5879L-0.00977989 75.5879L0.99022 75.5879L0.99022 74.5879ZM0.99022 71.585L0.99022 70.585L-0.00978011 70.585L-0.00978007 71.585L0.99022 71.585ZM36 71.585L37 71.585L37 70.585L36 70.585L36 71.585ZM16.0049 74.9297L16.3954 75.8503L16.4057 75.8459L16.0049 74.9297ZM13.6855 77.249L14.6017 77.6499L14.6061 77.6396L13.6855 77.249ZM13.6855 82.6445L12.7649 83.0351L12.7694 83.0453L13.6855 82.6445ZM16.0049 84.9395L16.4057 84.0232L16.3954 84.0189L16.0049 84.9395ZM31.0195 84.9395L31.4101 85.8601L31.4203 85.8556L31.0195 84.9395ZM33.3144 82.6445L34.2307 83.0454L34.235 83.0351L33.3144 82.6445ZM33.3144 77.249L32.3938 77.6396L32.3983 77.6498L33.3144 77.249ZM31.0195 74.9297L31.4204 74.0135L31.4101 74.0091L31.0195 74.9297ZM35.4527 71.749L32.9137 73.4091L34.0082 75.0831L36.5472 73.4229L35.4527 71.749ZM32.8677 75.0511C33.6753 75.6462 34.3185 76.3875 34.8026 77.2845L36.5626 76.3346C35.94 75.1809 35.102 74.2132 34.0541 73.441L32.8677 75.0511ZM34.7968 77.2736C35.2548 78.1479 35.4883 79.1105 35.4883 80.1787L37.4883 80.1787C37.4883 78.8055 37.1846 77.522 36.5684 76.3455L34.7968 77.2736ZM35.4883 80.1787L35.4883 80.9355L37.4883 80.9355L37.4883 80.1787L35.4883 80.1787ZM35.4883 80.9355C35.4883 81.8176 35.3254 82.6381 35.0042 83.4062L36.8493 84.1778C37.2768 83.1555 37.4883 82.0717 37.4883 80.9355L35.4883 80.9355ZM35.0102 83.3921C34.6678 84.1767 34.2086 84.8528 33.6327 85.4286L35.0469 86.8428C35.8057 86.084 36.4044 85.1976 36.8433 84.1919L35.0102 83.3921ZM33.6327 85.4286C33.0569 86.0045 32.3808 86.4637 31.5961 86.8061L32.396 88.6392C33.4017 88.2003 34.2881 87.6017 35.0469 86.8428L33.6327 85.4286ZM31.6103 86.8001C30.8422 87.1213 30.0217 87.2842 29.1396 87.2842L29.1396 89.2842C30.2758 89.2842 31.3596 89.0727 32.3819 88.6452L31.6103 86.8001ZM29.1396 87.2842L17.8603 87.2842L17.8603 89.2842L29.1396 89.2842L29.1396 87.2842ZM17.8603 87.2842C16.9783 87.2842 16.1578 87.1213 15.3897 86.8001L14.6181 88.6452C15.6404 89.0727 16.7242 89.2842 17.8603 89.2842L17.8603 87.2842ZM15.4038 86.8061C14.6192 86.4637 13.9431 86.0045 13.3672 85.4286L11.953 86.8428C12.7118 87.6017 13.5983 88.2003 14.6039 88.6392L15.4038 86.8061ZM13.3672 85.4286C12.7946 84.856 12.3458 84.1847 12.0202 83.4062L10.1751 84.1778C10.5982 85.1896 11.1911 86.0809 11.953 86.8428L13.3672 85.4286ZM12.0142 83.3921C11.6804 82.6272 11.5117 81.8117 11.5117 80.9355L9.5117 80.9355C9.5117 82.0776 9.73359 83.1664 10.1811 84.1919L12.0142 83.3921ZM11.5117 80.9355L11.5117 80.1787L9.5117 80.1787L9.5117 80.9355L11.5117 80.9355ZM11.5117 80.1787C11.5117 79.1954 11.7102 78.3012 12.0987 77.4825L10.2919 76.625C9.76898 77.7268 9.5117 78.9159 9.5117 80.1787L11.5117 80.1787ZM12.0987 77.4825C12.4929 76.6519 13.0389 75.9449 13.7428 75.3536L12.4564 73.8222C11.5327 74.5981 10.8091 75.535 10.2919 76.625L12.0987 77.4825ZM13.0996 73.5879L0.99022 73.5879L0.99022 75.5879L13.0996 75.5879L13.0996 73.5879ZM1.99022 74.5879L1.99022 71.585L-0.00978007 71.585L-0.00977994 74.5879L1.99022 74.5879ZM0.99022 72.585L36 72.585L36 70.585L0.99022 70.585L0.99022 72.585ZM35 71.585L35 72.5859L37 72.5859L37 71.585L35 71.585ZM17.6894 73.5879C16.9576 73.5879 16.2587 73.7271 15.604 74.0135L16.4057 75.8459C16.7927 75.6765 17.2169 75.5879 17.6894 75.5879L17.6894 73.5879ZM15.6143 74.0091C14.9657 74.2843 14.3926 74.6638 13.9062 75.1503L15.3204 76.5645C15.6151 76.2698 15.9698 76.0308 16.3954 75.8503L15.6143 74.0091ZM13.9062 75.1503C13.4197 75.6368 13.0401 76.2098 12.765 76.8585L14.6061 77.6396C14.7867 77.214 15.0256 76.8593 15.3204 76.5645L13.9062 75.1503ZM12.7694 76.8482C12.483 77.5028 12.3437 78.2018 12.3437 78.9336L14.3437 78.9336C14.3437 78.461 14.4324 78.0369 14.6017 77.6498L12.7694 76.8482ZM12.3437 78.9336L12.3437 80.9355L14.3437 80.9355L14.3437 78.9336L12.3437 78.9336ZM12.3437 80.9355C12.3437 81.6675 12.483 82.3704 12.765 83.0351L14.6061 82.254C14.4324 81.8444 14.3437 81.408 14.3437 80.9355L12.3437 80.9355ZM12.7694 83.0453C13.0457 83.677 13.4248 84.2375 13.9062 84.7188L15.3204 83.3046C15.0205 83.0047 14.7811 82.6537 14.6017 82.2437L12.7694 83.0453ZM13.9062 84.7188C14.3926 85.2053 14.9657 85.5849 15.6143 85.86L16.3954 84.0189C15.9698 83.8383 15.6151 83.5994 15.3204 83.3046L13.9062 84.7188ZM15.604 85.8556C16.2587 86.142 16.9576 86.2812 17.6894 86.2812L17.6894 84.2812C17.2169 84.2812 16.7927 84.1926 16.4057 84.0233L15.604 85.8556ZM17.6894 86.2812L29.3105 86.2812L29.3105 84.2812L17.6894 84.2812L17.6894 86.2812ZM29.3105 86.2812C30.0425 86.2812 30.7454 86.142 31.4101 85.86L30.629 84.0189C30.2194 84.1926 29.783 84.2812 29.3105 84.2812L29.3105 86.2812ZM31.4203 85.8556C32.052 85.5793 32.6124 85.2002 33.0938 84.7188L31.6796 83.3046C31.3797 83.6045 31.0287 83.8439 30.6187 84.0233L31.4203 85.8556ZM33.0938 84.7188C33.5752 84.2375 33.9542 83.677 34.2306 83.0453L32.3983 82.2437C32.2189 82.6537 31.9795 83.0047 31.6796 83.3046L33.0938 84.7188ZM34.235 83.0351C34.517 82.3704 34.6562 81.6675 34.6562 80.9355L32.6562 80.9355C32.6562 81.408 32.5676 81.8444 32.3939 82.254L34.235 83.0351ZM34.6562 80.9355L34.6562 78.9336L32.6562 78.9336L32.6562 80.9355L34.6562 80.9355ZM34.6562 78.9336C34.6562 78.2017 34.517 77.5028 34.2306 76.8482L32.3983 77.6498C32.5676 78.0369 32.6562 78.461 32.6562 78.9336L34.6562 78.9336ZM34.235 76.8585C33.9598 76.2098 33.5803 75.6368 33.0938 75.1503L31.6796 76.5645C31.9744 76.8593 32.2133 77.214 32.3939 77.6396L34.235 76.8585ZM33.0938 75.1503C32.6124 74.6689 32.052 74.2899 31.4203 74.0135L30.6187 75.8459C31.0287 76.0252 31.3797 76.2646 31.6796 76.5645L33.0938 75.1503ZM31.4101 74.0091C30.7454 73.7271 30.0425 73.5879 29.3105 73.5879L29.3105 75.5879C29.783 75.5879 30.2194 75.6765 30.629 75.8503L31.4101 74.0091ZM29.3105 73.5879L17.6894 73.5879L17.6894 75.5879L29.3105 75.5879L29.3105 73.5879ZM36 44.8809L36.5472 45.7178L37 45.4218L37 44.8809L36 44.8809ZM33.4609 46.541L32.9137 45.704L31.7086 46.492L32.8677 47.3461L33.4609 46.541ZM35.6826 49.1045L36.5685 48.6404L36.5626 48.6295L35.6826 49.1045ZM35.9267 56.0869L36.8433 56.4868L36.8464 56.4798L36.8493 56.4727L35.9267 56.0869ZM31.9961 60.0176L32.3819 60.9402L32.389 60.9372L32.396 60.9341L31.9961 60.0176ZM11 60.5791L9.99999 60.5791L9.99999 61.5791L11 61.5791L11 60.5791ZM11 57.5762L11 56.5762L9.99998 56.5762L9.99998 57.5762L11 57.5762ZM31.0195 57.2344L31.4101 58.155L31.4203 58.1505L31.0195 57.2344ZM33.3144 54.9395L34.2307 55.3403L34.235 55.33L33.3144 54.9395ZM33.3144 49.5439L32.3938 49.9345L32.3983 49.9448L33.3144 49.5439ZM31.0195 47.2246L31.4204 46.3084L31.4101 46.304L31.0195 47.2246ZM11 46.8828L9.99998 46.8828L9.99998 47.8828L11 47.8828L11 46.8828ZM11 43.8799L11 42.8799L9.99998 42.8799L9.99998 43.8799L11 43.8799ZM36 43.8799L37 43.8799L37 42.8799L36 42.8799L36 43.8799ZM35.4527 44.0439L32.9137 45.704L34.0082 47.378L36.5472 45.7178L35.4527 44.0439ZM32.8677 47.3461C33.6753 47.9411 34.3185 48.6824 34.8026 49.5794L36.5626 48.6295C35.94 47.4758 35.102 46.5081 34.0541 45.736L32.8677 47.3461ZM34.7968 49.5685C35.2548 50.4429 35.4883 51.4055 35.4883 52.4736L37.4883 52.4736C37.4883 51.1004 37.1846 49.8169 36.5684 48.6405L34.7968 49.5685ZM35.4883 52.4736L35.4883 53.2305L37.4883 53.2305L37.4883 52.4736L35.4883 52.4736ZM35.4883 53.2305C35.4883 54.1125 35.3254 54.933 35.0042 55.7011L36.8493 56.4727C37.2768 55.4504 37.4883 54.3666 37.4883 53.2305L35.4883 53.2305ZM35.0102 55.687C34.6678 56.4716 34.2086 57.1477 33.6327 57.7236L35.0469 59.1378C35.8057 58.379 36.4044 57.4926 36.8433 56.4868L35.0102 55.687ZM33.6327 57.7236C33.0569 58.2994 32.3808 58.7586 31.5961 59.101L32.396 60.9341C33.4017 60.4953 34.2881 59.8966 35.0469 59.1378L33.6327 57.7236ZM31.6103 59.095C30.8422 59.4162 30.0217 59.5791 29.1396 59.5791L29.1396 61.5791C30.2758 61.5791 31.3596 61.3676 32.3819 60.9402L31.6103 59.095ZM29.1396 59.5791L11 59.5791L11 61.5791L29.1396 61.5791L29.1396 59.5791ZM12 60.5791L12 57.5762L9.99998 57.5762L9.99999 60.5791L12 60.5791ZM11 58.5762L29.3105 58.5762L29.3105 56.5762L11 56.5762L11 58.5762ZM29.3105 58.5762C30.0425 58.5762 30.7454 58.4369 31.4101 58.155L30.629 56.3138C30.2194 56.4875 29.783 56.5762 29.3105 56.5762L29.3105 58.5762ZM31.4203 58.1505C32.052 57.8742 32.6124 57.4951 33.0938 57.0137L31.6796 55.5995C31.3797 55.8994 31.0287 56.1389 30.6187 56.3182L31.4203 58.1505ZM33.0938 57.0137C33.5752 56.5324 33.9542 55.972 34.2306 55.3403L32.3983 54.5386C32.2189 54.9486 31.9795 55.2997 31.6796 55.5995L33.0938 57.0137ZM34.235 55.33C34.517 54.6653 34.6562 53.9625 34.6562 53.2305L32.6562 53.2305C32.6562 53.7029 32.5676 54.1393 32.3939 54.5489L34.235 55.33ZM34.6562 53.2305L34.6562 51.2285L32.6562 51.2285L32.6562 53.2305L34.6562 53.2305ZM34.6562 51.2285C34.6562 50.4967 34.517 49.7978 34.2306 49.1431L32.3983 49.9448C32.5676 50.3318 32.6562 50.7559 32.6562 51.2285L34.6562 51.2285ZM34.235 49.1534C33.9598 48.5048 33.5803 47.9317 33.0938 47.4452L31.6796 48.8594C31.9744 49.1542 32.2133 49.5089 32.3939 49.9345L34.235 49.1534ZM33.0938 47.4452C32.6124 46.9639 32.052 46.5848 31.4203 46.3084L30.6187 48.1408C31.0287 48.3201 31.3797 48.5596 31.6796 48.8594L33.0938 47.4452ZM31.4101 46.304C30.7454 46.0221 30.0425 45.8828 29.3105 45.8828L29.3105 47.8828C29.783 47.8828 30.2194 47.9714 30.629 48.1452L31.4101 46.304ZM29.3105 45.8828L11 45.8828L11 47.8828L29.3105 47.8828L29.3105 45.8828ZM12 46.8828L12 43.8799L9.99998 43.8799L9.99998 46.8828L12 46.8828ZM11 44.8799L36 44.8799L36 42.8799L11 42.8799L11 44.8799ZM35 43.8799L35 44.8809L37 44.8809L37 43.8799L35 43.8799ZM36 31.873L36 32.873L37 32.873L37 31.873L36 31.873ZM0.990218 31.873L-0.0097818 31.873L-0.00978176 32.873L0.990218 32.873L0.990218 31.873ZM0.990218 28.8701L0.990218 27.8701L-0.00978198 27.8701L-0.00978194 28.8701L0.990218 28.8701ZM36 28.8701L37 28.8701L37 27.8701L36 27.8701L36 28.8701ZM36 30.873L0.990218 30.873L0.990218 32.873L36 32.873L36 30.873ZM1.99022 31.873L1.99022 28.8701L-0.00978194 28.8701L-0.0097818 31.873L1.99022 31.873ZM0.990218 29.8701L36 29.8701L36 27.8701L0.990218 27.8701L0.990218 29.8701ZM35 28.8701L35 31.873L37 31.873L37 28.8701L35 28.8701ZM31.9961 0.725584L31.5961 1.64212L31.6032 1.6452L31.6103 1.64816L31.9961 0.725584ZM35.9267 4.63183L36.8493 4.24603L36.8464 4.23895L36.8433 4.2319L35.9267 4.63183ZM35.9267 12.3467L36.8433 12.7466L36.8464 12.7396L36.8493 12.7325L35.9267 12.3467ZM31.9961 16.2773L32.3819 17.1999L32.389 17.197L32.396 17.1939L31.9961 16.2773ZM15.0039 16.2773L14.6039 17.1939L14.611 17.197L14.6181 17.1999L15.0039 16.2773ZM11.0976 12.3467L12.0202 11.9609L12.0173 11.9538L12.0142 11.9467L11.0976 12.3467ZM11.0976 4.63183L12.0142 5.03177L12.0173 5.02472L12.0202 5.01764L11.0976 4.63183ZM15.0039 0.725585L15.3897 1.64816L15.3968 1.6452L15.4038 1.64212L15.0039 0.725585ZM23.7441 0.139647L24.7441 0.139647L24.7441 -0.860353L23.7441 -0.860353L23.7441 0.139647ZM23.7441 13.8359L22.7441 13.8359L22.7441 14.8359L23.7441 14.8359L23.7441 13.8359ZM31.0195 13.4941L31.4101 14.4148L31.4203 14.4103L31.0195 13.4941ZM33.3144 11.1992L34.2307 11.6001L34.235 11.5898L33.3144 11.1992ZM33.3144 5.80371L32.3938 6.19427L32.3983 6.20453L33.3144 5.80371ZM31.0195 3.48437L31.4204 2.56814L31.4101 2.56378L31.0195 3.48437ZM27.6504 3.14258L26.6633 2.98208L26.4746 4.14258L27.6504 4.14258L27.6504 3.14258ZM28.1387 0.139647L28.1387 -0.860353L27.2881 -0.860353L27.1516 -0.0208453L28.1387 0.139647ZM16.0049 3.48437L16.3954 4.40503L16.4057 4.40054L16.0049 3.48437ZM13.6855 5.80371L14.6017 6.20456L14.6061 6.19427L13.6855 5.80371ZM13.6855 11.1992L12.7649 11.5898L12.7694 11.6L13.6855 11.1992ZM16.0049 13.4941L16.4057 12.5779L16.3954 12.5735L16.0049 13.4941ZM21.4004 13.8359L21.4004 14.8359L22.4004 14.8359L22.4004 13.8359L21.4004 13.8359ZM21.4004 3.14258L22.4004 3.14258L22.4004 2.14258L21.4004 2.14258L21.4004 3.14258ZM29.1396 1.13965C30.0158 1.13965 30.8313 1.30838 31.5961 1.64212L32.396 -0.19095C31.3705 -0.63846 30.2817 -0.860353 29.1396 -0.860353L29.1396 1.13965ZM31.6103 1.64816C32.3888 1.97372 33.0601 2.42254 33.6327 2.99518L35.0469 1.58099C34.2849 0.818998 33.3937 0.226133 32.3819 -0.196993L31.6103 1.64816ZM33.6327 2.99518C34.2086 3.57101 34.6678 4.2471 35.0102 5.03177L36.8433 4.2319C36.4044 3.22619 35.8057 2.33978 35.0469 1.58099L33.6327 2.99518ZM35.0042 5.01764C35.3254 5.78573 35.4883 6.60623 35.4883 7.48828L37.4883 7.48828C37.4883 6.35211 37.2768 5.26831 36.8493 4.24603L35.0042 5.01764ZM35.4883 7.48828L35.4883 9.49023L37.4883 9.49023L37.4883 7.48828L35.4883 7.48828ZM35.4883 9.49023C35.4883 10.3723 35.3254 11.1928 35.0042 11.9609L36.8493 12.7325C37.2768 11.7102 37.4883 10.6264 37.4883 9.49023L35.4883 9.49023ZM35.0102 11.9467C34.6678 12.7314 34.2086 13.4075 33.6327 13.9833L35.0469 15.3975C35.8057 14.6387 36.4044 13.7523 36.8433 12.7466L35.0102 11.9467ZM33.6327 13.9833C33.0569 14.5591 32.3808 15.0184 31.5961 15.3608L32.396 17.1939C33.4017 16.755 34.2881 16.1563 35.0469 15.3975L33.6327 13.9833ZM31.6103 15.3548C30.8422 15.676 30.0217 15.8389 29.1396 15.8389L29.1396 17.8389C30.2758 17.8389 31.3596 17.6274 32.3819 17.1999L31.6103 15.3548ZM29.1396 15.8389L17.8603 15.8389L17.8603 17.8389L29.1396 17.8389L29.1396 15.8389ZM17.8603 15.8389C16.9783 15.8389 16.1578 15.676 15.3897 15.3548L14.6181 17.1999C15.6404 17.6274 16.7242 17.8389 17.8603 17.8389L17.8603 15.8389ZM15.4038 15.3608C14.6192 15.0184 13.9431 14.5591 13.3672 13.9833L11.953 15.3975C12.7118 16.1563 13.5983 16.755 14.6039 17.1939L15.4038 15.3608ZM13.3672 13.9833C12.7946 13.4107 12.3458 12.7394 12.0202 11.9609L10.1751 12.7325C10.5982 13.7443 11.191 14.6356 11.953 15.3975L13.3672 13.9833ZM12.0142 11.9467C11.6804 11.1819 11.5117 10.3664 11.5117 9.49023L9.5117 9.49023C9.5117 10.6323 9.73359 11.7211 10.1811 12.7466L12.0142 11.9467ZM11.5117 9.49023L11.5117 7.48828L9.5117 7.48828L9.5117 9.49023L11.5117 9.49023ZM11.5117 7.48828C11.5117 6.61212 11.6804 5.7966 12.0142 5.03177L10.1811 4.2319C9.73359 5.25745 9.5117 6.34619 9.5117 7.48828L11.5117 7.48828ZM12.0202 5.01764C12.3458 4.2391 12.7946 3.56784 13.3672 2.99518L11.953 1.58099C11.191 2.34296 10.5982 3.23419 10.1751 4.24603L12.0202 5.01764ZM13.3672 2.99518C13.9399 2.42255 14.6112 1.97372 15.3897 1.64816L14.6181 -0.196992C13.6063 0.226134 12.715 0.818999 11.953 1.58099L13.3672 2.99518ZM15.4038 1.64212C16.1686 1.30838 16.9842 1.13965 17.8603 1.13965L17.8603 -0.860353C16.7183 -0.860353 15.6295 -0.63846 14.6039 -0.19095L15.4038 1.64212ZM17.8603 1.13965L23.7441 1.13965L23.7441 -0.860353L17.8603 -0.860353L17.8603 1.13965ZM22.7441 0.139647L22.7441 13.8359L24.7441 13.8359L24.7441 0.139647L22.7441 0.139647ZM23.7441 14.8359L29.3105 14.8359L29.3105 12.8359L23.7441 12.8359L23.7441 14.8359ZM29.3105 14.8359C30.0425 14.8359 30.7454 14.6967 31.4101 14.4147L30.629 12.5735C30.2194 12.7473 29.783 12.8359 29.3105 12.8359L29.3105 14.8359ZM31.4203 14.4103C32.052 14.1339 32.6124 13.7549 33.0938 13.2735L31.6796 11.8593C31.3797 12.1592 31.0287 12.3986 30.6187 12.578L31.4203 14.4103ZM33.0938 13.2735C33.5752 12.7921 33.9542 12.2317 34.2306 11.6L32.3983 10.7984C32.2189 11.2084 31.9795 11.5594 31.6796 11.8593L33.0938 13.2735ZM34.235 11.5898C34.517 10.9251 34.6562 10.2222 34.6562 9.49023L32.6562 9.49023C32.6562 9.96268 32.5676 10.3991 32.3939 10.8087L34.235 11.5898ZM34.6562 9.49023L34.6562 7.48828L32.6562 7.48828L32.6562 9.49023L34.6562 9.49023ZM34.6562 7.48828C34.6562 6.75644 34.517 6.05752 34.2306 5.40289L32.3983 6.20453C32.5676 6.59155 32.6562 7.01571 32.6562 7.48828L34.6562 7.48828ZM34.235 5.41314C33.9598 4.76452 33.5803 4.1915 33.0938 3.70502L31.6796 5.1192C31.9744 5.41397 32.2133 5.76867 32.3939 6.19427L34.235 5.41314ZM33.0938 3.70502C32.6124 3.22363 32.052 2.84457 31.4203 2.5682L30.6187 4.40054C31.0287 4.57989 31.3797 4.81933 31.6796 5.1192L33.0938 3.70502ZM31.4101 2.56378C30.7454 2.28183 30.0425 2.14258 29.3105 2.14258L29.3105 4.14258C29.783 4.14258 30.2194 4.2312 30.629 4.40497L31.4101 2.56378ZM29.3105 2.14258L27.6504 2.14258L27.6504 4.14258L29.3105 4.14258L29.3105 2.14258ZM28.6374 3.30307L29.1257 0.300139L27.1516 -0.0208453L26.6633 2.98208L28.6374 3.30307ZM28.1387 1.13965L29.1396 1.13965L29.1396 -0.860353L28.1387 -0.860353L28.1387 1.13965ZM17.6894 2.14258C16.9576 2.14258 16.2587 2.28183 15.604 2.56821L16.4057 4.40054C16.7927 4.2312 17.2169 4.14258 17.6894 4.14258L17.6894 2.14258ZM15.6143 2.56378C14.9657 2.83896 14.3926 3.2185 13.9062 3.70502L15.3204 5.1192C15.6151 4.82446 15.9698 4.58551 16.3954 4.40497L15.6143 2.56378ZM13.9062 3.70502C13.4197 4.1915 13.0401 4.76453 12.7649 5.41315L14.6061 6.19427C14.7867 5.76868 15.0256 5.41397 15.3204 5.1192L13.9062 3.70502ZM12.7694 5.40289C12.483 6.05752 12.3437 6.75644 12.3437 7.48828L14.3437 7.48828C14.3437 7.01572 14.4324 6.59155 14.6017 6.20453L12.7694 5.40289ZM12.3437 7.48828L12.3437 9.49023L14.3437 9.49023L14.3437 7.48828L12.3437 7.48828ZM12.3437 9.49023C12.3437 10.2222 12.483 10.9251 12.7649 11.5898L14.6061 10.8087C14.4324 10.3991 14.3437 9.96268 14.3437 9.49023L12.3437 9.49023ZM12.7694 11.6C13.0457 12.2317 13.4248 12.7921 13.9062 13.2735L15.3204 11.8593C15.0205 11.5594 14.7811 11.2084 14.6017 10.7984L12.7694 11.6ZM13.9062 13.2735C14.3926 13.76 14.9657 14.1396 15.6143 14.4147L16.3954 12.5735C15.9698 12.393 15.6151 12.1541 15.3204 11.8593L13.9062 13.2735ZM15.604 14.4103C16.2587 14.6967 16.9576 14.8359 17.6894 14.8359L17.6894 12.8359C17.2169 12.8359 16.7927 12.7473 16.4057 12.578L15.604 14.4103ZM17.6894 14.8359L21.4004 14.8359L21.4004 12.8359L17.6894 12.8359L17.6894 14.8359ZM22.4004 13.8359L22.4004 3.14258L20.4004 3.14258L20.4004 13.8359L22.4004 13.8359ZM21.4004 2.14258L17.6894 2.14258L17.6894 4.14258L21.4004 4.14258L21.4004 2.14258Z" fill="#E1E002"/>
</svg>
