<svg width="48" height="48" viewBox="0 0 48 48" fill="none" xmlns="http://www.w3.org/2000/svg">
<path d="M24.0001 0.666666C11.1201 0.666666 0.666748 11.12 0.666748 24C0.666748 36.88 11.1201 47.3333 24.0001 47.3333C36.8801 47.3333 47.3334 36.88 47.3334 24C47.3334 11.12 36.8801 0.666666 24.0001 0.666666ZM33.4034 25.2367L26.4034 32.2367C26.0534 32.5867 25.6101 32.75 25.1667 32.75C24.7234 32.75 24.2801 32.5867 23.9301 32.2367C23.6046 31.9073 23.4221 31.463 23.4221 31C23.4221 30.537 23.6046 30.0927 23.9301 29.7633L27.9434 25.75H15.8334C14.8767 25.75 14.0834 24.9567 14.0834 24C14.0834 23.0433 14.8767 22.25 15.8334 22.25H27.9434L23.9301 18.2367C23.6046 17.9073 23.4221 17.463 23.4221 17C23.4221 16.537 23.6046 16.0927 23.9301 15.7633C24.6068 15.0867 25.7267 15.0867 26.4034 15.7633L33.4034 22.7633C34.0801 23.44 34.0801 24.56 33.4034 25.2367Z" fill="#E1E002"/>
</svg>
