<svg width="36" height="36" viewBox="0 0 36 36" fill="none" xmlns="http://www.w3.org/2000/svg">
<path d="M18 3C9.72 3 3 9.72 3 18C3 26.28 9.72 33 18 33C26.28 33 33 26.28 33 18C33 9.72 26.28 3 18 3ZM24.045 18.795L19.545 23.295C19.32 23.52 19.035 23.625 18.75 23.625C18.465 23.625 18.18 23.52 17.955 23.295C17.7458 23.0833 17.6284 22.7976 17.6284 22.5C17.6284 22.2024 17.7458 21.9167 17.955 21.705L20.535 19.125H12.75C12.135 19.125 11.625 18.615 11.625 18C11.625 17.385 12.135 16.875 12.75 16.875H20.535L17.955 14.295C17.7458 14.0833 17.6284 13.7976 17.6284 13.5C17.6284 13.2024 17.7458 12.9167 17.955 12.705C18.39 12.27 19.11 12.27 19.545 12.705L24.045 17.205C24.48 17.64 24.48 18.36 24.045 18.795Z" fill="#E1E002"/>
</svg>
