<svg width="32" height="32" viewBox="0 0 32 32" fill="none" xmlns="http://www.w3.org/2000/svg">
<path d="M26.6667 5.33325H5.33341C3.86675 5.33325 2.68008 6.53325 2.68008 7.99992L2.66675 23.9999C2.66675 25.4666 3.86675 26.6666 5.33341 26.6666H26.6667C28.1334 26.6666 29.3334 25.4666 29.3334 23.9999V7.99992C29.3334 6.53325 28.1334 5.33325 26.6667 5.33325ZM26.1334 10.9999L16.7067 16.8933C16.2801 17.1599 15.7201 17.1599 15.2934 16.8933L5.86675 10.9999C5.73305 10.9249 5.61597 10.8235 5.5226 10.7019C5.42923 10.5802 5.3615 10.441 5.32352 10.2924C5.28553 10.1439 5.27808 9.98917 5.30162 9.83766C5.32516 9.68616 5.3792 9.541 5.46046 9.41099C5.54172 9.28097 5.64851 9.16879 5.77438 9.08125C5.90025 8.9937 6.04258 8.9326 6.19274 8.90165C6.34291 8.8707 6.49779 8.87054 6.64802 8.90118C6.79825 8.93182 6.9407 8.99263 7.06675 9.07992L16.0001 14.6666L24.9334 9.07992C25.0595 8.99263 25.2019 8.93182 25.3521 8.90118C25.5024 8.87054 25.6573 8.8707 25.8074 8.90165C25.9576 8.9326 26.0999 8.9937 26.2258 9.08125C26.3516 9.16879 26.4584 9.28097 26.5397 9.41099C26.621 9.541 26.675 9.68616 26.6985 9.83766C26.7221 9.98917 26.7146 10.1439 26.6766 10.2924C26.6387 10.441 26.5709 10.5802 26.4776 10.7019C26.3842 10.8235 26.2671 10.9249 26.1334 10.9999Z" fill="#181818"/>
</svg>
